<svg width="34" height="52" viewBox="0 0 34 52" fill="none" xmlns="http://www.w3.org/2000/svg">
<path d="M29.1515 0H3.93939C2.8946 0 1.8926 0.428012 1.15382 1.18988C0.415042 1.95175 0 2.98506 0 4.0625V47.9375C0 49.0149 0.415042 50.0483 1.15382 50.8101C1.8926 51.572 2.8946 52 3.93939 52H29.1515C30.1963 52 31.1983 51.572 31.9371 50.8101C32.6759 50.0483 33.0909 49.0149 33.0909 47.9375V4.0625C33.0909 3.529 32.989 3.00073 32.791 2.50785C32.5931 2.01496 32.3029 1.56712 31.9371 1.18988C31.5713 0.812641 31.137 0.513399 30.6591 0.309239C30.1811 0.10508 29.6688 0 29.1515 0ZM3.93939 1.625H29.1515C29.7784 1.625 30.3796 1.88181 30.8229 2.33893C31.2661 2.79605 31.5152 3.41603 31.5152 4.0625V6.5H1.57576V4.0625C1.57576 3.41603 1.82478 2.79605 2.26805 2.33893C2.71132 1.88181 3.31252 1.625 3.93939 1.625ZM29.1515 50.375H3.93939C3.31252 50.375 2.71132 50.1182 2.26805 49.6611C1.82478 49.204 1.57576 48.584 1.57576 47.9375V8.125H31.5152V47.9375C31.5152 48.584 31.2661 49.204 30.8229 49.6611C30.3796 50.1182 29.7784 50.375 29.1515 50.375Z" fill="#3246D3"/>
<path d="M14.9695 4.72712H18.121C18.33 4.72712 18.5304 4.64412 18.6781 4.49636C18.8259 4.3486 18.9089 4.1482 18.9089 3.93925C18.9089 3.73029 18.8259 3.52989 18.6781 3.38213C18.5304 3.23438 18.33 3.15137 18.121 3.15137H14.9695C14.7606 3.15137 14.5602 3.23438 14.4124 3.38213C14.2646 3.52989 14.1816 3.73029 14.1816 3.93925C14.1816 4.1482 14.2646 4.3486 14.4124 4.49636C14.5602 4.64412 14.7606 4.72712 14.9695 4.72712Z" fill="#3246D3"/>
<path d="M17.3324 47.2729H15.7566C15.5477 47.2729 15.3473 47.356 15.1995 47.5037C15.0518 47.6515 14.9688 47.8519 14.9688 48.0608C14.9688 48.2698 15.0518 48.4702 15.1995 48.6179C15.3473 48.7657 15.5477 48.8487 15.7566 48.8487H17.3324C17.5413 48.8487 17.7417 48.7657 17.8895 48.6179C18.0373 48.4702 18.1203 48.2698 18.1203 48.0608C18.1203 47.8519 18.0373 47.6515 17.8895 47.5037C17.7417 47.356 17.5413 47.2729 17.3324 47.2729Z" fill="#3246D3"/>
<path d="M27.575 44.1211H5.51444C5.30548 44.1211 5.10508 44.2041 4.95733 44.3519C4.80957 44.4996 4.72656 44.7 4.72656 44.909C4.72656 45.1179 4.80957 45.3183 4.95733 45.4661C5.10508 45.6138 5.30548 45.6969 5.51444 45.6969H27.575C27.784 45.6969 27.9844 45.6138 28.1322 45.4661C28.2799 45.3183 28.3629 45.1179 28.3629 44.909C28.3629 44.7 28.2799 44.4996 28.1322 44.3519C27.9844 44.2041 27.784 44.1211 27.575 44.1211Z" fill="#3246D3"/>
<path d="M5.44193 18.7643H7.68819L9.64829 31.8556C9.70003 32.1967 9.87332 32.5077 10.1362 32.7312C10.3992 32.9547 10.734 33.0756 11.079 33.0717H24.7569C24.9466 33.0717 25.1286 32.9963 25.2627 32.8622C25.3969 32.728 25.4722 32.546 25.4722 32.3563C25.4722 32.1666 25.3969 31.9846 25.2627 31.8505C25.1286 31.7163 24.9466 31.641 24.7569 31.641H11.0647L10.7428 29.4948H24.1488C24.4907 29.4995 24.823 29.3816 25.0854 29.1625C25.3479 28.9433 25.5232 28.6374 25.5795 28.3002L26.7671 21.1465C26.8017 20.9421 26.7915 20.7325 26.7371 20.5324C26.6828 20.3323 26.5856 20.1464 26.4523 19.9876C26.3163 19.8265 26.1464 19.6974 25.9547 19.6096C25.763 19.5218 25.5543 19.4774 25.3435 19.4797H9.24053L9.10462 18.5497C9.05288 18.2086 8.87959 17.8976 8.61667 17.6741C8.35375 17.4506 8.01892 17.3297 7.67388 17.3336H5.44193C5.2522 17.3336 5.07025 17.409 4.93609 17.5431C4.80193 17.6773 4.72656 17.8592 4.72656 18.049C4.72656 18.2387 4.80193 18.4206 4.93609 18.5548C5.07025 18.689 5.2522 18.7643 5.44193 18.7643ZM25.3435 20.9104L24.1488 28.0641H10.5568L9.48376 20.9104H25.3435Z" fill="#3246D3"/>
<path d="M12.5968 37.3639C13.3869 37.3639 14.0275 36.7234 14.0275 35.9332C14.0275 35.143 13.3869 34.5024 12.5968 34.5024C11.8066 34.5024 11.166 35.143 11.166 35.9332C11.166 36.7234 11.8066 37.3639 12.5968 37.3639Z" fill="#3246D3"/>
<path d="M21.8956 37.3639C22.6858 37.3639 23.3263 36.7234 23.3263 35.9332C23.3263 35.143 22.6858 34.5024 21.8956 34.5024C21.1054 34.5024 20.4648 35.143 20.4648 35.9332C20.4648 36.7234 21.1054 37.3639 21.8956 37.3639Z" fill="#3246D3"/>
</svg>
