<svg width="70" height="263" viewBox="0 0 70 263" fill="none" xmlns="http://www.w3.org/2000/svg">
<mask id="mask0" mask-type="alpha" maskUnits="userSpaceOnUse" x="-193" y="0" width="263" height="263">
<circle cx="-61.291" cy="131.596" r="131" fill="#C4C4C4"/>
</mask>
<g mask="url(#mask0)">
<path fill-rule="evenodd" clip-rule="evenodd" d="M-177.133 2.5957H-179.291V4.75404C-178.104 4.75404 -177.133 3.78279 -177.133 2.5957ZM-157.708 4.75404C-156.521 4.75404 -155.549 3.78279 -155.549 2.5957H-159.866C-159.866 3.78279 -158.895 4.75404 -157.708 4.75404ZM-133.966 2.5957C-133.966 3.78279 -134.937 4.75404 -136.124 4.75404C-137.311 4.75404 -138.283 3.78279 -138.283 2.5957H-133.966ZM-114.541 4.75404C-113.354 4.75404 -112.383 3.78279 -112.383 2.5957H-116.699C-116.699 3.78279 -115.728 4.75404 -114.541 4.75404ZM-90.7994 2.5957C-90.7994 3.78279 -91.7706 4.75404 -92.9577 4.75404C-94.1448 4.75404 -95.116 3.78279 -95.116 2.5957H-90.7994ZM-71.3744 4.75404C-70.1873 4.75404 -69.216 3.78279 -69.216 2.5957H-73.5327C-73.5327 3.78279 -72.5614 4.75404 -71.3744 4.75404ZM-47.6327 2.5957C-47.6327 3.78279 -48.604 4.75404 -49.791 4.75404C-50.9781 4.75404 -51.9494 3.78279 -51.9494 2.5957H-47.6327ZM-28.2077 4.75404C-27.0206 4.75404 -26.0493 3.78279 -26.0493 2.5957H-30.366C-30.366 3.78279 -29.3948 4.75404 -28.2077 4.75404ZM-4.46602 2.5957C-4.46602 3.78279 -5.43729 4.75404 -6.62437 4.75404C-7.81146 4.75404 -8.78273 3.78279 -8.78273 2.5957H-4.46602ZM14.959 4.75404C16.1461 4.75404 17.1173 3.78279 17.1173 2.5957H12.8006C12.8006 3.78279 13.7719 4.75404 14.959 4.75404ZM38.7007 2.5957C38.7007 3.78279 37.7294 4.75404 36.5423 4.75404C35.3552 4.75404 34.384 3.78279 34.384 2.5957H38.7007ZM58.1257 4.75404C59.3127 4.75404 60.284 3.78279 60.284 2.5957H55.9673C55.9673 3.78279 56.9386 4.75404 58.1257 4.75404ZM79.709 2.5957V4.75404C78.5219 4.75404 77.5506 3.78279 77.5506 2.5957H79.709ZM-177.133 24.179C-177.133 22.9919 -178.104 22.0207 -179.291 22.0207V26.3374C-178.104 26.3374 -177.133 25.3661 -177.133 24.179ZM-155.549 24.179C-155.549 25.371 -156.516 26.3374 -157.708 26.3374C-158.9 26.3374 -159.866 25.371 -159.866 24.179C-159.866 22.987 -158.9 22.0207 -157.708 22.0207C-156.516 22.0207 -155.549 22.987 -155.549 24.179ZM-136.124 26.3374C-134.932 26.3374 -133.966 25.371 -133.966 24.179C-133.966 22.987 -134.932 22.0207 -136.124 22.0207C-137.316 22.0207 -138.283 22.987 -138.283 24.179C-138.283 25.371 -137.316 26.3374 -136.124 26.3374ZM-112.383 24.179C-112.383 25.371 -113.349 26.3374 -114.541 26.3374C-115.733 26.3374 -116.699 25.371 -116.699 24.179C-116.699 22.987 -115.733 22.0207 -114.541 22.0207C-113.349 22.0207 -112.383 22.987 -112.383 24.179ZM-92.9577 26.3374C-91.7657 26.3374 -90.7994 25.371 -90.7994 24.179C-90.7994 22.987 -91.7657 22.0207 -92.9577 22.0207C-94.1497 22.0207 -95.116 22.987 -95.116 24.179C-95.116 25.371 -94.1497 26.3374 -92.9577 26.3374ZM-69.216 24.179C-69.216 25.371 -70.1823 26.3374 -71.3744 26.3374C-72.5664 26.3374 -73.5327 25.371 -73.5327 24.179C-73.5327 22.987 -72.5664 22.0207 -71.3744 22.0207C-70.1823 22.0207 -69.216 22.987 -69.216 24.179ZM-49.791 26.3374C-48.599 26.3374 -47.6327 25.371 -47.6327 24.179C-47.6327 22.987 -48.599 22.0207 -49.791 22.0207C-50.983 22.0207 -51.9494 22.987 -51.9494 24.179C-51.9494 25.371 -50.983 26.3374 -49.791 26.3374ZM-26.0493 24.179C-26.0493 25.371 -27.0157 26.3374 -28.2077 26.3374C-29.3997 26.3374 -30.366 25.371 -30.366 24.179C-30.366 22.987 -29.3997 22.0207 -28.2077 22.0207C-27.0157 22.0207 -26.0493 22.987 -26.0493 24.179ZM-6.62437 26.3374C-5.43234 26.3374 -4.46602 25.371 -4.46602 24.179C-4.46602 22.987 -5.43234 22.0207 -6.62437 22.0207C-7.81641 22.0207 -8.78273 22.987 -8.78273 24.179C-8.78273 25.371 -7.81641 26.3374 -6.62437 26.3374ZM17.1173 24.179C17.1173 25.371 16.151 26.3374 14.959 26.3374C13.767 26.3374 12.8006 25.371 12.8006 24.179C12.8006 22.987 13.767 22.0207 14.959 22.0207C16.151 22.0207 17.1173 22.987 17.1173 24.179ZM36.5423 26.3374C37.7343 26.3374 38.7007 25.371 38.7007 24.179C38.7007 22.987 37.7343 22.0207 36.5423 22.0207C35.3503 22.0207 34.384 22.987 34.384 24.179C34.384 25.371 35.3503 26.3374 36.5423 26.3374ZM60.284 24.179C60.284 25.371 59.3177 26.3374 58.1257 26.3374C56.9336 26.3374 55.9673 25.371 55.9673 24.179C55.9673 22.987 56.9336 22.0207 58.1257 22.0207C59.3177 22.0207 60.284 22.987 60.284 24.179ZM77.5506 24.179C77.5506 25.3661 78.5219 26.3374 79.709 26.3374V22.0207C78.5219 22.0207 77.5506 22.9919 77.5506 24.179ZM-179.291 43.604C-178.104 43.604 -177.133 44.5753 -177.133 45.7624C-177.133 46.9494 -178.104 47.9207 -179.291 47.9207V43.604ZM-157.708 47.9207C-156.516 47.9207 -155.549 46.9544 -155.549 45.7624C-155.549 44.5703 -156.516 43.604 -157.708 43.604C-158.9 43.604 -159.866 44.5703 -159.866 45.7624C-159.866 46.9544 -158.9 47.9207 -157.708 47.9207ZM-133.966 45.7624C-133.966 46.9544 -134.932 47.9207 -136.124 47.9207C-137.316 47.9207 -138.283 46.9544 -138.283 45.7624C-138.283 44.5703 -137.316 43.604 -136.124 43.604C-134.932 43.604 -133.966 44.5703 -133.966 45.7624ZM-114.541 47.9207C-113.349 47.9207 -112.383 46.9544 -112.383 45.7624C-112.383 44.5703 -113.349 43.604 -114.541 43.604C-115.733 43.604 -116.699 44.5703 -116.699 45.7624C-116.699 46.9544 -115.733 47.9207 -114.541 47.9207ZM-90.7994 45.7624C-90.7994 46.9544 -91.7657 47.9207 -92.9577 47.9207C-94.1497 47.9207 -95.116 46.9544 -95.116 45.7624C-95.116 44.5703 -94.1497 43.604 -92.9577 43.604C-91.7657 43.604 -90.7994 44.5703 -90.7994 45.7624ZM-71.3744 47.9207C-70.1823 47.9207 -69.216 46.9544 -69.216 45.7624C-69.216 44.5703 -70.1823 43.604 -71.3744 43.604C-72.5664 43.604 -73.5327 44.5703 -73.5327 45.7624C-73.5327 46.9544 -72.5664 47.9207 -71.3744 47.9207ZM-47.6327 45.7624C-47.6327 46.9544 -48.599 47.9207 -49.791 47.9207C-50.983 47.9207 -51.9494 46.9544 -51.9494 45.7624C-51.9494 44.5703 -50.983 43.604 -49.791 43.604C-48.599 43.604 -47.6327 44.5703 -47.6327 45.7624ZM-28.2077 47.9207C-27.0157 47.9207 -26.0493 46.9544 -26.0493 45.7624C-26.0493 44.5703 -27.0157 43.604 -28.2077 43.604C-29.3997 43.604 -30.366 44.5703 -30.366 45.7624C-30.366 46.9544 -29.3997 47.9207 -28.2077 47.9207ZM-4.46602 45.7624C-4.46602 46.9544 -5.43234 47.9207 -6.62437 47.9207C-7.81641 47.9207 -8.78273 46.9544 -8.78273 45.7624C-8.78273 44.5703 -7.81641 43.604 -6.62437 43.604C-5.43234 43.604 -4.46602 44.5703 -4.46602 45.7624ZM14.959 47.9207C16.151 47.9207 17.1173 46.9544 17.1173 45.7624C17.1173 44.5703 16.151 43.604 14.959 43.604C13.767 43.604 12.8006 44.5703 12.8006 45.7624C12.8006 46.9544 13.767 47.9207 14.959 47.9207ZM38.7007 45.7624C38.7007 46.9544 37.7343 47.9207 36.5423 47.9207C35.3503 47.9207 34.384 46.9544 34.384 45.7624C34.384 44.5703 35.3503 43.604 36.5423 43.604C37.7343 43.604 38.7007 44.5703 38.7007 45.7624ZM58.1257 47.9207C59.3177 47.9207 60.284 46.9544 60.284 45.7624C60.284 44.5703 59.3177 43.604 58.1257 43.604C56.9336 43.604 55.9673 44.5703 55.9673 45.7624C55.9673 46.9544 56.9336 47.9207 58.1257 47.9207ZM79.709 47.9207C78.5219 47.9207 77.5506 46.9494 77.5506 45.7624C77.5506 44.5753 78.5219 43.604 79.709 43.604V47.9207ZM-177.133 67.3457C-177.133 66.1586 -178.104 65.1874 -179.291 65.1874V69.504C-178.104 69.504 -177.133 68.5328 -177.133 67.3457ZM-155.549 67.3457C-155.549 68.5377 -156.516 69.504 -157.708 69.504C-158.9 69.504 -159.866 68.5377 -159.866 67.3457C-159.866 66.1537 -158.9 65.1874 -157.708 65.1874C-156.516 65.1874 -155.549 66.1537 -155.549 67.3457ZM-136.124 69.504C-134.932 69.504 -133.966 68.5377 -133.966 67.3457C-133.966 66.1537 -134.932 65.1874 -136.124 65.1874C-137.316 65.1874 -138.283 66.1537 -138.283 67.3457C-138.283 68.5377 -137.316 69.504 -136.124 69.504ZM-112.383 67.3457C-112.383 68.5377 -113.349 69.504 -114.541 69.504C-115.733 69.504 -116.699 68.5377 -116.699 67.3457C-116.699 66.1537 -115.733 65.1874 -114.541 65.1874C-113.349 65.1874 -112.383 66.1537 -112.383 67.3457ZM-92.9577 69.504C-91.7657 69.504 -90.7994 68.5377 -90.7994 67.3457C-90.7994 66.1537 -91.7657 65.1874 -92.9577 65.1874C-94.1497 65.1874 -95.116 66.1537 -95.116 67.3457C-95.116 68.5377 -94.1497 69.504 -92.9577 69.504ZM-69.216 67.3457C-69.216 68.5377 -70.1823 69.504 -71.3744 69.504C-72.5664 69.504 -73.5327 68.5377 -73.5327 67.3457C-73.5327 66.1537 -72.5664 65.1874 -71.3744 65.1874C-70.1823 65.1874 -69.216 66.1537 -69.216 67.3457ZM-49.791 69.504C-48.599 69.504 -47.6327 68.5377 -47.6327 67.3457C-47.6327 66.1537 -48.599 65.1874 -49.791 65.1874C-50.983 65.1874 -51.9494 66.1537 -51.9494 67.3457C-51.9494 68.5377 -50.983 69.504 -49.791 69.504ZM-26.0493 67.3457C-26.0493 68.5377 -27.0157 69.504 -28.2077 69.504C-29.3997 69.504 -30.366 68.5377 -30.366 67.3457C-30.366 66.1537 -29.3997 65.1874 -28.2077 65.1874C-27.0157 65.1874 -26.0493 66.1537 -26.0493 67.3457ZM-6.62437 69.504C-5.43234 69.504 -4.46602 68.5377 -4.46602 67.3457C-4.46602 66.1537 -5.43234 65.1874 -6.62437 65.1874C-7.81641 65.1874 -8.78273 66.1537 -8.78273 67.3457C-8.78273 68.5377 -7.81641 69.504 -6.62437 69.504ZM17.1173 67.3457C17.1173 68.5377 16.151 69.504 14.959 69.504C13.767 69.504 12.8006 68.5377 12.8006 67.3457C12.8006 66.1537 13.767 65.1874 14.959 65.1874C16.151 65.1874 17.1173 66.1537 17.1173 67.3457ZM36.5423 69.504C37.7343 69.504 38.7007 68.5377 38.7007 67.3457C38.7007 66.1537 37.7343 65.1874 36.5423 65.1874C35.3503 65.1874 34.384 66.1537 34.384 67.3457C34.384 68.5377 35.3503 69.504 36.5423 69.504ZM60.284 67.3457C60.284 68.5377 59.3177 69.504 58.1257 69.504C56.9336 69.504 55.9673 68.5377 55.9673 67.3457C55.9673 66.1537 56.9336 65.1874 58.1257 65.1874C59.3177 65.1874 60.284 66.1537 60.284 67.3457ZM77.5506 67.3457C77.5506 68.5328 78.5219 69.504 79.709 69.504V65.1874C78.5219 65.1874 77.5506 66.1586 77.5506 67.3457ZM-179.291 86.7707C-178.104 86.7707 -177.133 87.7419 -177.133 88.929C-177.133 90.1161 -178.104 91.0874 -179.291 91.0874V86.7707ZM-157.708 91.0874C-156.516 91.0874 -155.549 90.121 -155.549 88.929C-155.549 87.737 -156.516 86.7707 -157.708 86.7707C-158.9 86.7707 -159.866 87.737 -159.866 88.929C-159.866 90.121 -158.9 91.0874 -157.708 91.0874ZM-133.966 88.929C-133.966 90.121 -134.932 91.0874 -136.124 91.0874C-137.316 91.0874 -138.283 90.121 -138.283 88.929C-138.283 87.737 -137.316 86.7707 -136.124 86.7707C-134.932 86.7707 -133.966 87.737 -133.966 88.929ZM-114.541 91.0874C-113.349 91.0874 -112.383 90.121 -112.383 88.929C-112.383 87.737 -113.349 86.7707 -114.541 86.7707C-115.733 86.7707 -116.699 87.737 -116.699 88.929C-116.699 90.121 -115.733 91.0874 -114.541 91.0874ZM-90.7994 88.929C-90.7994 90.121 -91.7657 91.0874 -92.9577 91.0874C-94.1497 91.0874 -95.116 90.121 -95.116 88.929C-95.116 87.737 -94.1497 86.7707 -92.9577 86.7707C-91.7657 86.7707 -90.7994 87.737 -90.7994 88.929ZM-71.3744 91.0874C-70.1823 91.0874 -69.216 90.121 -69.216 88.929C-69.216 87.737 -70.1823 86.7707 -71.3744 86.7707C-72.5664 86.7707 -73.5327 87.737 -73.5327 88.929C-73.5327 90.121 -72.5664 91.0874 -71.3744 91.0874ZM-47.6327 88.929C-47.6327 90.121 -48.599 91.0874 -49.791 91.0874C-50.983 91.0874 -51.9494 90.121 -51.9494 88.929C-51.9494 87.737 -50.983 86.7707 -49.791 86.7707C-48.599 86.7707 -47.6327 87.737 -47.6327 88.929ZM-28.2077 91.0874C-27.0157 91.0874 -26.0493 90.121 -26.0493 88.929C-26.0493 87.737 -27.0157 86.7707 -28.2077 86.7707C-29.3997 86.7707 -30.366 87.737 -30.366 88.929C-30.366 90.121 -29.3997 91.0874 -28.2077 91.0874ZM-4.46602 88.929C-4.46602 90.121 -5.43234 91.0874 -6.62437 91.0874C-7.81641 91.0874 -8.78273 90.121 -8.78273 88.929C-8.78273 87.737 -7.81641 86.7707 -6.62437 86.7707C-5.43234 86.7707 -4.46602 87.737 -4.46602 88.929ZM14.959 91.0874C16.151 91.0874 17.1173 90.121 17.1173 88.929C17.1173 87.737 16.151 86.7707 14.959 86.7707C13.767 86.7707 12.8006 87.737 12.8006 88.929C12.8006 90.121 13.767 91.0874 14.959 91.0874ZM38.7007 88.929C38.7007 90.121 37.7343 91.0874 36.5423 91.0874C35.3503 91.0874 34.384 90.121 34.384 88.929C34.384 87.737 35.3503 86.7707 36.5423 86.7707C37.7343 86.7707 38.7007 87.737 38.7007 88.929ZM58.1257 91.0874C59.3177 91.0874 60.284 90.121 60.284 88.929C60.284 87.737 59.3177 86.7707 58.1257 86.7707C56.9336 86.7707 55.9673 87.737 55.9673 88.929C55.9673 90.121 56.9336 91.0874 58.1257 91.0874ZM79.709 91.0874C78.5219 91.0874 77.5506 90.1161 77.5506 88.929C77.5506 87.7419 78.5219 86.7707 79.709 86.7707V91.0874ZM-177.133 110.512C-177.133 109.325 -178.104 108.354 -179.291 108.354V112.671C-178.104 112.671 -177.133 111.699 -177.133 110.512ZM-155.549 110.512C-155.549 111.704 -156.516 112.671 -157.708 112.671C-158.9 112.671 -159.866 111.704 -159.866 110.512C-159.866 109.32 -158.9 108.354 -157.708 108.354C-156.516 108.354 -155.549 109.32 -155.549 110.512ZM-136.124 112.671C-134.932 112.671 -133.966 111.704 -133.966 110.512C-133.966 109.32 -134.932 108.354 -136.124 108.354C-137.316 108.354 -138.283 109.32 -138.283 110.512C-138.283 111.704 -137.316 112.671 -136.124 112.671ZM-112.383 110.512C-112.383 111.704 -113.349 112.671 -114.541 112.671C-115.733 112.671 -116.699 111.704 -116.699 110.512C-116.699 109.32 -115.733 108.354 -114.541 108.354C-113.349 108.354 -112.383 109.32 -112.383 110.512ZM-92.9577 112.671C-91.7657 112.671 -90.7994 111.704 -90.7994 110.512C-90.7994 109.32 -91.7657 108.354 -92.9577 108.354C-94.1497 108.354 -95.116 109.32 -95.116 110.512C-95.116 111.704 -94.1497 112.671 -92.9577 112.671ZM-69.216 110.512C-69.216 111.704 -70.1823 112.671 -71.3744 112.671C-72.5664 112.671 -73.5327 111.704 -73.5327 110.512C-73.5327 109.32 -72.5664 108.354 -71.3744 108.354C-70.1823 108.354 -69.216 109.32 -69.216 110.512ZM-49.791 112.671C-48.599 112.671 -47.6327 111.704 -47.6327 110.512C-47.6327 109.32 -48.599 108.354 -49.791 108.354C-50.983 108.354 -51.9494 109.32 -51.9494 110.512C-51.9494 111.704 -50.983 112.671 -49.791 112.671ZM-26.0493 110.512C-26.0493 111.704 -27.0157 112.671 -28.2077 112.671C-29.3997 112.671 -30.366 111.704 -30.366 110.512C-30.366 109.32 -29.3997 108.354 -28.2077 108.354C-27.0157 108.354 -26.0493 109.32 -26.0493 110.512ZM-6.62437 112.671C-5.43234 112.671 -4.46602 111.704 -4.46602 110.512C-4.46602 109.32 -5.43234 108.354 -6.62437 108.354C-7.81641 108.354 -8.78273 109.32 -8.78273 110.512C-8.78273 111.704 -7.81641 112.671 -6.62437 112.671ZM17.1173 110.512C17.1173 111.704 16.151 112.671 14.959 112.671C13.767 112.671 12.8006 111.704 12.8006 110.512C12.8006 109.32 13.767 108.354 14.959 108.354C16.151 108.354 17.1173 109.32 17.1173 110.512ZM36.5423 112.671C37.7343 112.671 38.7007 111.704 38.7007 110.512C38.7007 109.32 37.7343 108.354 36.5423 108.354C35.3503 108.354 34.384 109.32 34.384 110.512C34.384 111.704 35.3503 112.671 36.5423 112.671ZM60.284 110.512C60.284 111.704 59.3177 112.671 58.1257 112.671C56.9336 112.671 55.9673 111.704 55.9673 110.512C55.9673 109.32 56.9336 108.354 58.1257 108.354C59.3177 108.354 60.284 109.32 60.284 110.512ZM77.5506 110.512C77.5506 111.699 78.5219 112.671 79.709 112.671V108.354C78.5219 108.354 77.5506 109.325 77.5506 110.512ZM-179.291 129.937C-178.104 129.937 -177.133 130.909 -177.133 132.096C-177.133 133.283 -178.104 134.254 -179.291 134.254V129.937ZM-157.708 134.254C-156.516 134.254 -155.549 133.288 -155.549 132.096C-155.549 130.904 -156.516 129.937 -157.708 129.937C-158.9 129.937 -159.866 130.904 -159.866 132.096C-159.866 133.288 -158.9 134.254 -157.708 134.254ZM-133.966 132.096C-133.966 133.288 -134.932 134.254 -136.124 134.254C-137.316 134.254 -138.283 133.288 -138.283 132.096C-138.283 130.904 -137.316 129.937 -136.124 129.937C-134.932 129.937 -133.966 130.904 -133.966 132.096ZM-114.541 134.254C-113.349 134.254 -112.383 133.288 -112.383 132.096C-112.383 130.904 -113.349 129.937 -114.541 129.937C-115.733 129.937 -116.699 130.904 -116.699 132.096C-116.699 133.288 -115.733 134.254 -114.541 134.254ZM-90.7994 132.096C-90.7994 133.288 -91.7657 134.254 -92.9577 134.254C-94.1497 134.254 -95.116 133.288 -95.116 132.096C-95.116 130.904 -94.1497 129.937 -92.9577 129.937C-91.7657 129.937 -90.7994 130.904 -90.7994 132.096ZM-71.3744 134.254C-70.1823 134.254 -69.216 133.288 -69.216 132.096C-69.216 130.904 -70.1823 129.937 -71.3744 129.937C-72.5664 129.937 -73.5327 130.904 -73.5327 132.096C-73.5327 133.288 -72.5664 134.254 -71.3744 134.254ZM-47.6327 132.096C-47.6327 133.288 -48.599 134.254 -49.791 134.254C-50.983 134.254 -51.9494 133.288 -51.9494 132.096C-51.9494 130.904 -50.983 129.937 -49.791 129.937C-48.599 129.937 -47.6327 130.904 -47.6327 132.096ZM-28.2077 134.254C-27.0157 134.254 -26.0493 133.288 -26.0493 132.096C-26.0493 130.904 -27.0157 129.937 -28.2077 129.937C-29.3997 129.937 -30.366 130.904 -30.366 132.096C-30.366 133.288 -29.3997 134.254 -28.2077 134.254ZM-4.46602 132.096C-4.46602 133.288 -5.43234 134.254 -6.62437 134.254C-7.81641 134.254 -8.78273 133.288 -8.78273 132.096C-8.78273 130.904 -7.81641 129.937 -6.62437 129.937C-5.43234 129.937 -4.46602 130.904 -4.46602 132.096ZM14.959 134.254C16.151 134.254 17.1173 133.288 17.1173 132.096C17.1173 130.904 16.151 129.937 14.959 129.937C13.767 129.937 12.8006 130.904 12.8006 132.096C12.8006 133.288 13.767 134.254 14.959 134.254ZM38.7007 132.096C38.7007 133.288 37.7343 134.254 36.5423 134.254C35.3503 134.254 34.384 133.288 34.384 132.096C34.384 130.904 35.3503 129.937 36.5423 129.937C37.7343 129.937 38.7007 130.904 38.7007 132.096ZM58.1257 134.254C59.3177 134.254 60.284 133.288 60.284 132.096C60.284 130.904 59.3177 129.937 58.1257 129.937C56.9336 129.937 55.9673 130.904 55.9673 132.096C55.9673 133.288 56.9336 134.254 58.1257 134.254ZM79.709 134.254C78.5219 134.254 77.5506 133.283 77.5506 132.096C77.5506 130.909 78.5219 129.937 79.709 129.937V134.254ZM-177.133 153.679C-177.133 152.492 -178.104 151.521 -179.291 151.521V155.837C-178.104 155.837 -177.133 154.866 -177.133 153.679ZM-155.549 153.679C-155.549 154.871 -156.516 155.837 -157.708 155.837C-158.9 155.837 -159.866 154.871 -159.866 153.679C-159.866 152.487 -158.9 151.521 -157.708 151.521C-156.516 151.521 -155.549 152.487 -155.549 153.679ZM-136.124 155.837C-134.932 155.837 -133.966 154.871 -133.966 153.679C-133.966 152.487 -134.932 151.521 -136.124 151.521C-137.316 151.521 -138.283 152.487 -138.283 153.679C-138.283 154.871 -137.316 155.837 -136.124 155.837ZM-112.383 153.679C-112.383 154.871 -113.349 155.837 -114.541 155.837C-115.733 155.837 -116.699 154.871 -116.699 153.679C-116.699 152.487 -115.733 151.521 -114.541 151.521C-113.349 151.521 -112.383 152.487 -112.383 153.679ZM-92.9577 155.837C-91.7657 155.837 -90.7994 154.871 -90.7994 153.679C-90.7994 152.487 -91.7657 151.521 -92.9577 151.521C-94.1497 151.521 -95.116 152.487 -95.116 153.679C-95.116 154.871 -94.1497 155.837 -92.9577 155.837ZM-69.216 153.679C-69.216 154.871 -70.1823 155.837 -71.3744 155.837C-72.5664 155.837 -73.5327 154.871 -73.5327 153.679C-73.5327 152.487 -72.5664 151.521 -71.3744 151.521C-70.1823 151.521 -69.216 152.487 -69.216 153.679ZM-49.791 155.837C-48.599 155.837 -47.6327 154.871 -47.6327 153.679C-47.6327 152.487 -48.599 151.521 -49.791 151.521C-50.983 151.521 -51.9494 152.487 -51.9494 153.679C-51.9494 154.871 -50.983 155.837 -49.791 155.837ZM-26.0493 153.679C-26.0493 154.871 -27.0157 155.837 -28.2077 155.837C-29.3997 155.837 -30.366 154.871 -30.366 153.679C-30.366 152.487 -29.3997 151.521 -28.2077 151.521C-27.0157 151.521 -26.0493 152.487 -26.0493 153.679ZM-6.62437 155.837C-5.43234 155.837 -4.46602 154.871 -4.46602 153.679C-4.46602 152.487 -5.43234 151.521 -6.62437 151.521C-7.81641 151.521 -8.78273 152.487 -8.78273 153.679C-8.78273 154.871 -7.81641 155.837 -6.62437 155.837ZM17.1173 153.679C17.1173 154.871 16.151 155.837 14.959 155.837C13.767 155.837 12.8006 154.871 12.8006 153.679C12.8006 152.487 13.767 151.521 14.959 151.521C16.151 151.521 17.1173 152.487 17.1173 153.679ZM36.5423 155.837C37.7343 155.837 38.7007 154.871 38.7007 153.679C38.7007 152.487 37.7343 151.521 36.5423 151.521C35.3503 151.521 34.384 152.487 34.384 153.679C34.384 154.871 35.3503 155.837 36.5423 155.837ZM60.284 153.679C60.284 154.871 59.3177 155.837 58.1257 155.837C56.9336 155.837 55.9673 154.871 55.9673 153.679C55.9673 152.487 56.9336 151.521 58.1257 151.521C59.3177 151.521 60.284 152.487 60.284 153.679ZM77.5506 153.679C77.5506 154.866 78.5219 155.837 79.709 155.837V151.521C78.5219 151.521 77.5506 152.492 77.5506 153.679ZM-179.291 173.104C-178.104 173.104 -177.133 174.075 -177.133 175.262C-177.133 176.449 -178.104 177.421 -179.291 177.421V173.104ZM-157.708 177.421C-156.516 177.421 -155.549 176.454 -155.549 175.262C-155.549 174.07 -156.516 173.104 -157.708 173.104C-158.9 173.104 -159.866 174.07 -159.866 175.262C-159.866 176.454 -158.9 177.421 -157.708 177.421ZM-133.966 175.262C-133.966 176.454 -134.932 177.421 -136.124 177.421C-137.316 177.421 -138.283 176.454 -138.283 175.262C-138.283 174.07 -137.316 173.104 -136.124 173.104C-134.932 173.104 -133.966 174.07 -133.966 175.262ZM-114.541 177.421C-113.349 177.421 -112.383 176.454 -112.383 175.262C-112.383 174.07 -113.349 173.104 -114.541 173.104C-115.733 173.104 -116.699 174.07 -116.699 175.262C-116.699 176.454 -115.733 177.421 -114.541 177.421ZM-90.7994 175.262C-90.7994 176.454 -91.7657 177.421 -92.9577 177.421C-94.1497 177.421 -95.116 176.454 -95.116 175.262C-95.116 174.07 -94.1497 173.104 -92.9577 173.104C-91.7657 173.104 -90.7994 174.07 -90.7994 175.262ZM-71.3744 177.421C-70.1823 177.421 -69.216 176.454 -69.216 175.262C-69.216 174.07 -70.1823 173.104 -71.3744 173.104C-72.5664 173.104 -73.5327 174.07 -73.5327 175.262C-73.5327 176.454 -72.5664 177.421 -71.3744 177.421ZM-47.6327 175.262C-47.6327 176.454 -48.599 177.421 -49.791 177.421C-50.983 177.421 -51.9494 176.454 -51.9494 175.262C-51.9494 174.07 -50.983 173.104 -49.791 173.104C-48.599 173.104 -47.6327 174.07 -47.6327 175.262ZM-28.2077 177.421C-27.0157 177.421 -26.0493 176.454 -26.0493 175.262C-26.0493 174.07 -27.0157 173.104 -28.2077 173.104C-29.3997 173.104 -30.366 174.07 -30.366 175.262C-30.366 176.454 -29.3997 177.421 -28.2077 177.421ZM-4.46602 175.262C-4.46602 176.454 -5.43234 177.421 -6.62437 177.421C-7.81641 177.421 -8.78273 176.454 -8.78273 175.262C-8.78273 174.07 -7.81641 173.104 -6.62437 173.104C-5.43234 173.104 -4.46602 174.07 -4.46602 175.262ZM14.959 177.421C16.151 177.421 17.1173 176.454 17.1173 175.262C17.1173 174.07 16.151 173.104 14.959 173.104C13.767 173.104 12.8006 174.07 12.8006 175.262C12.8006 176.454 13.767 177.421 14.959 177.421ZM38.7007 175.262C38.7007 176.454 37.7343 177.421 36.5423 177.421C35.3503 177.421 34.384 176.454 34.384 175.262C34.384 174.07 35.3503 173.104 36.5423 173.104C37.7343 173.104 38.7007 174.07 38.7007 175.262ZM58.1257 177.421C59.3177 177.421 60.284 176.454 60.284 175.262C60.284 174.07 59.3177 173.104 58.1257 173.104C56.9336 173.104 55.9673 174.07 55.9673 175.262C55.9673 176.454 56.9336 177.421 58.1257 177.421ZM79.709 177.421C78.5219 177.421 77.5506 176.449 77.5506 175.262C77.5506 174.075 78.5219 173.104 79.709 173.104V177.421ZM-177.133 196.846C-177.133 195.659 -178.104 194.687 -179.291 194.687V199.004C-178.104 199.004 -177.133 198.033 -177.133 196.846ZM-155.549 196.846C-155.549 198.038 -156.516 199.004 -157.708 199.004C-158.9 199.004 -159.866 198.038 -159.866 196.846C-159.866 195.654 -158.9 194.687 -157.708 194.687C-156.516 194.687 -155.549 195.654 -155.549 196.846ZM-136.124 199.004C-134.932 199.004 -133.966 198.038 -133.966 196.846C-133.966 195.654 -134.932 194.687 -136.124 194.687C-137.316 194.687 -138.283 195.654 -138.283 196.846C-138.283 198.038 -137.316 199.004 -136.124 199.004ZM-112.383 196.846C-112.383 198.038 -113.349 199.004 -114.541 199.004C-115.733 199.004 -116.699 198.038 -116.699 196.846C-116.699 195.654 -115.733 194.687 -114.541 194.687C-113.349 194.687 -112.383 195.654 -112.383 196.846ZM-92.9577 199.004C-91.7657 199.004 -90.7994 198.038 -90.7994 196.846C-90.7994 195.654 -91.7657 194.687 -92.9577 194.687C-94.1497 194.687 -95.116 195.654 -95.116 196.846C-95.116 198.038 -94.1497 199.004 -92.9577 199.004ZM-69.216 196.846C-69.216 198.038 -70.1823 199.004 -71.3744 199.004C-72.5664 199.004 -73.5327 198.038 -73.5327 196.846C-73.5327 195.654 -72.5664 194.687 -71.3744 194.687C-70.1823 194.687 -69.216 195.654 -69.216 196.846ZM-49.791 199.004C-48.599 199.004 -47.6327 198.038 -47.6327 196.846C-47.6327 195.654 -48.599 194.687 -49.791 194.687C-50.983 194.687 -51.9494 195.654 -51.9494 196.846C-51.9494 198.038 -50.983 199.004 -49.791 199.004ZM-26.0493 196.846C-26.0493 198.038 -27.0157 199.004 -28.2077 199.004C-29.3997 199.004 -30.366 198.038 -30.366 196.846C-30.366 195.654 -29.3997 194.687 -28.2077 194.687C-27.0157 194.687 -26.0493 195.654 -26.0493 196.846ZM-6.62437 199.004C-5.43234 199.004 -4.46602 198.038 -4.46602 196.846C-4.46602 195.654 -5.43234 194.687 -6.62437 194.687C-7.81641 194.687 -8.78273 195.654 -8.78273 196.846C-8.78273 198.038 -7.81641 199.004 -6.62437 199.004ZM17.1173 196.846C17.1173 198.038 16.151 199.004 14.959 199.004C13.767 199.004 12.8006 198.038 12.8006 196.846C12.8006 195.654 13.767 194.687 14.959 194.687C16.151 194.687 17.1173 195.654 17.1173 196.846ZM36.5423 199.004C37.7343 199.004 38.7007 198.038 38.7007 196.846C38.7007 195.654 37.7343 194.687 36.5423 194.687C35.3503 194.687 34.384 195.654 34.384 196.846C34.384 198.038 35.3503 199.004 36.5423 199.004ZM60.284 196.846C60.284 198.038 59.3177 199.004 58.1257 199.004C56.9336 199.004 55.9673 198.038 55.9673 196.846C55.9673 195.654 56.9336 194.687 58.1257 194.687C59.3177 194.687 60.284 195.654 60.284 196.846ZM77.5506 196.846C77.5506 198.033 78.5219 199.004 79.709 199.004V194.687C78.5219 194.687 77.5506 195.659 77.5506 196.846ZM-179.291 216.271C-178.104 216.271 -177.133 217.242 -177.133 218.429C-177.133 219.616 -178.104 220.587 -179.291 220.587V216.271ZM-157.708 220.587C-156.516 220.587 -155.549 219.621 -155.549 218.429C-155.549 217.237 -156.516 216.271 -157.708 216.271C-158.9 216.271 -159.866 217.237 -159.866 218.429C-159.866 219.621 -158.9 220.587 -157.708 220.587ZM-133.966 218.429C-133.966 219.621 -134.932 220.587 -136.124 220.587C-137.316 220.587 -138.283 219.621 -138.283 218.429C-138.283 217.237 -137.316 216.271 -136.124 216.271C-134.932 216.271 -133.966 217.237 -133.966 218.429ZM-114.541 220.587C-113.349 220.587 -112.383 219.621 -112.383 218.429C-112.383 217.237 -113.349 216.271 -114.541 216.271C-115.733 216.271 -116.699 217.237 -116.699 218.429C-116.699 219.621 -115.733 220.587 -114.541 220.587ZM-90.7994 218.429C-90.7994 219.621 -91.7657 220.587 -92.9577 220.587C-94.1497 220.587 -95.116 219.621 -95.116 218.429C-95.116 217.237 -94.1497 216.271 -92.9577 216.271C-91.7657 216.271 -90.7994 217.237 -90.7994 218.429ZM-71.3744 220.587C-70.1823 220.587 -69.216 219.621 -69.216 218.429C-69.216 217.237 -70.1823 216.271 -71.3744 216.271C-72.5664 216.271 -73.5327 217.237 -73.5327 218.429C-73.5327 219.621 -72.5664 220.587 -71.3744 220.587ZM-47.6327 218.429C-47.6327 219.621 -48.599 220.587 -49.791 220.587C-50.983 220.587 -51.9494 219.621 -51.9494 218.429C-51.9494 217.237 -50.983 216.271 -49.791 216.271C-48.599 216.271 -47.6327 217.237 -47.6327 218.429ZM-28.2077 220.587C-27.0157 220.587 -26.0493 219.621 -26.0493 218.429C-26.0493 217.237 -27.0157 216.271 -28.2077 216.271C-29.3997 216.271 -30.366 217.237 -30.366 218.429C-30.366 219.621 -29.3997 220.587 -28.2077 220.587ZM-4.46602 218.429C-4.46602 219.621 -5.43234 220.587 -6.62437 220.587C-7.81641 220.587 -8.78273 219.621 -8.78273 218.429C-8.78273 217.237 -7.81641 216.271 -6.62437 216.271C-5.43234 216.271 -4.46602 217.237 -4.46602 218.429ZM14.959 220.587C16.151 220.587 17.1173 219.621 17.1173 218.429C17.1173 217.237 16.151 216.271 14.959 216.271C13.767 216.271 12.8006 217.237 12.8006 218.429C12.8006 219.621 13.767 220.587 14.959 220.587ZM38.7007 218.429C38.7007 219.621 37.7343 220.587 36.5423 220.587C35.3503 220.587 34.384 219.621 34.384 218.429C34.384 217.237 35.3503 216.271 36.5423 216.271C37.7343 216.271 38.7007 217.237 38.7007 218.429ZM58.1257 220.587C59.3177 220.587 60.284 219.621 60.284 218.429C60.284 217.237 59.3177 216.271 58.1257 216.271C56.9336 216.271 55.9673 217.237 55.9673 218.429C55.9673 219.621 56.9336 220.587 58.1257 220.587ZM79.709 220.587C78.5219 220.587 77.5506 219.616 77.5506 218.429C77.5506 217.242 78.5219 216.271 79.709 216.271V220.587ZM-177.133 240.012C-177.133 238.825 -178.104 237.854 -179.291 237.854V242.171C-178.104 242.171 -177.133 241.199 -177.133 240.012ZM-155.549 240.012C-155.549 241.204 -156.516 242.171 -157.708 242.171C-158.9 242.171 -159.866 241.204 -159.866 240.012C-159.866 238.82 -158.9 237.854 -157.708 237.854C-156.516 237.854 -155.549 238.82 -155.549 240.012ZM-136.124 242.171C-134.932 242.171 -133.966 241.204 -133.966 240.012C-133.966 238.82 -134.932 237.854 -136.124 237.854C-137.316 237.854 -138.283 238.82 -138.283 240.012C-138.283 241.204 -137.316 242.171 -136.124 242.171ZM-112.383 240.012C-112.383 241.204 -113.349 242.171 -114.541 242.171C-115.733 242.171 -116.699 241.204 -116.699 240.012C-116.699 238.82 -115.733 237.854 -114.541 237.854C-113.349 237.854 -112.383 238.82 -112.383 240.012ZM-92.9577 242.171C-91.7657 242.171 -90.7994 241.204 -90.7994 240.012C-90.7994 238.82 -91.7657 237.854 -92.9577 237.854C-94.1497 237.854 -95.116 238.82 -95.116 240.012C-95.116 241.204 -94.1497 242.171 -92.9577 242.171ZM-69.216 240.012C-69.216 241.204 -70.1823 242.171 -71.3744 242.171C-72.5664 242.171 -73.5327 241.204 -73.5327 240.012C-73.5327 238.82 -72.5664 237.854 -71.3744 237.854C-70.1823 237.854 -69.216 238.82 -69.216 240.012ZM-49.791 242.171C-48.599 242.171 -47.6327 241.204 -47.6327 240.012C-47.6327 238.82 -48.599 237.854 -49.791 237.854C-50.983 237.854 -51.9494 238.82 -51.9494 240.012C-51.9494 241.204 -50.983 242.171 -49.791 242.171ZM-26.0493 240.012C-26.0493 241.204 -27.0157 242.171 -28.2077 242.171C-29.3997 242.171 -30.366 241.204 -30.366 240.012C-30.366 238.82 -29.3997 237.854 -28.2077 237.854C-27.0157 237.854 -26.0493 238.82 -26.0493 240.012ZM-6.62437 242.171C-5.43234 242.171 -4.46602 241.204 -4.46602 240.012C-4.46602 238.82 -5.43234 237.854 -6.62437 237.854C-7.81641 237.854 -8.78273 238.82 -8.78273 240.012C-8.78273 241.204 -7.81641 242.171 -6.62437 242.171ZM17.1173 240.012C17.1173 241.204 16.151 242.171 14.959 242.171C13.767 242.171 12.8006 241.204 12.8006 240.012C12.8006 238.82 13.767 237.854 14.959 237.854C16.151 237.854 17.1173 238.82 17.1173 240.012ZM36.5423 242.171C37.7343 242.171 38.7007 241.204 38.7007 240.012C38.7007 238.82 37.7343 237.854 36.5423 237.854C35.3503 237.854 34.384 238.82 34.384 240.012C34.384 241.204 35.3503 242.171 36.5423 242.171ZM60.284 240.012C60.284 241.204 59.3177 242.171 58.1257 242.171C56.9336 242.171 55.9673 241.204 55.9673 240.012C55.9673 238.82 56.9336 237.854 58.1257 237.854C59.3177 237.854 60.284 238.82 60.284 240.012ZM77.5506 240.012C77.5506 241.199 78.5219 242.171 79.709 242.171V237.854C78.5219 237.854 77.5506 238.825 77.5506 240.012ZM-179.291 261.596V259.437C-178.104 259.437 -177.133 260.409 -177.133 261.596H-179.291ZM-157.708 259.437C-158.895 259.437 -159.866 260.409 -159.866 261.596H-155.549C-155.549 260.409 -156.521 259.437 -157.708 259.437ZM-138.283 261.596C-138.283 260.409 -137.311 259.437 -136.124 259.437C-134.937 259.437 -133.966 260.409 -133.966 261.596H-138.283ZM-114.541 259.437C-115.728 259.437 -116.699 260.409 -116.699 261.596H-112.383C-112.383 260.409 -113.354 259.437 -114.541 259.437ZM-95.116 261.596C-95.116 260.409 -94.1448 259.437 -92.9577 259.437C-91.7706 259.437 -90.7994 260.409 -90.7994 261.596H-95.116ZM-71.3744 259.437C-72.5614 259.437 -73.5327 260.409 -73.5327 261.596H-69.216C-69.216 260.409 -70.1873 259.437 -71.3744 259.437ZM-51.9494 261.596C-51.9494 260.409 -50.9781 259.437 -49.791 259.437C-48.604 259.437 -47.6327 260.409 -47.6327 261.596H-51.9494ZM-28.2077 259.437C-29.3948 259.437 -30.366 260.409 -30.366 261.596H-26.0493C-26.0493 260.409 -27.0206 259.437 -28.2077 259.437ZM-8.78273 261.596C-8.78273 260.409 -7.81146 259.437 -6.62437 259.437C-5.43729 259.437 -4.46602 260.409 -4.46602 261.596H-8.78273ZM14.959 259.437C13.7719 259.437 12.8006 260.409 12.8006 261.596H17.1173C17.1173 260.409 16.1461 259.437 14.959 259.437ZM34.384 261.596C34.384 260.409 35.3552 259.437 36.5423 259.437C37.7294 259.437 38.7007 260.409 38.7007 261.596H34.384ZM58.1257 259.437C56.9386 259.437 55.9673 260.409 55.9673 261.596H60.284C60.284 260.409 59.3127 259.437 58.1257 259.437ZM77.5506 261.596C77.5506 260.409 78.5219 259.437 79.709 259.437V261.596H77.5506Z" fill="#55BC7E"/>
</g>
</svg>
