<svg width="11" height="9" viewBox="0 0 11 9" fill="none" xmlns="http://www.w3.org/2000/svg">
<path fill-rule="evenodd" clip-rule="evenodd" d="M4.0166 8.68664C7.78837 8.68664 9.85143 5.39011 9.85143 2.53167C9.85143 2.43783 9.85143 2.34452 9.84543 2.25173C10.2467 1.94596 10.5931 1.56639 10.8685 1.13198C10.4946 1.30701 10.0973 1.42193 9.691 1.47255C10.1188 1.2021 10.4392 0.777179 10.5926 0.27582C10.1898 0.527818 9.74947 0.705481 9.29018 0.800903C8.51354 -0.0700179 7.21464 -0.112193 6.38852 0.707063C5.85626 1.23531 5.62986 2.02293 5.79529 2.77418C4.14655 2.68667 2.61025 1.8653 1.56873 0.514111C1.02448 1.5026 1.30285 2.7668 2.20394 3.40154C1.87759 3.39152 1.55823 3.29874 1.27286 3.13109V3.1585C1.27336 4.18811 1.96155 5.07485 2.91811 5.27887C2.61625 5.36586 2.29939 5.37851 1.99253 5.31577C2.26091 6.19724 3.03106 6.80087 3.90815 6.81827C3.18199 7.42032 2.2849 7.74718 1.36132 7.74613C1.1984 7.7456 1.03547 7.73558 0.873047 7.71502C1.81112 8.34976 2.90212 8.68664 4.0166 8.68506" fill="#55BC7E"/>
</svg>
