<svg width="11" height="11" viewBox="0 0 11 11" fill="none" xmlns="http://www.w3.org/2000/svg">
<path fill-rule="evenodd" clip-rule="evenodd" d="M8.62624 3.1309C8.62624 3.44402 8.3724 3.69786 8.05927 3.69786C7.74615 3.69786 7.49227 3.44402 7.49227 3.1309C7.49227 2.81777 7.74615 2.56393 8.05927 2.56393C8.3724 2.56393 8.62624 2.81777 8.62624 3.1309ZM5.53723 7.22788C4.66744 7.22788 3.96231 6.52275 3.96231 5.65295C3.96231 4.78316 4.66744 4.07803 5.53723 4.07803C6.40702 4.07803 7.11215 4.78316 7.11215 5.65295C7.11215 6.52275 6.40702 7.22788 5.53723 7.22788ZM5.53731 3.22671C4.19737 3.22671 3.11109 4.31296 3.11109 5.65294C3.11109 6.99287 4.19737 8.07916 5.53731 8.07916C6.87725 8.07916 7.96353 6.99287 7.96353 5.65294C7.96353 4.31296 6.87725 3.22671 5.53731 3.22671ZM5.53722 0.928223C4.25406 0.928223 4.09319 0.933649 3.58924 0.956645C3.08635 0.979604 2.74288 1.05944 2.44235 1.17627C2.13166 1.29701 1.86818 1.45857 1.60552 1.72124C1.34285 1.98387 1.18129 2.24734 1.06055 2.55807C0.943759 2.8586 0.863881 3.20203 0.840922 3.70496C0.817926 4.20888 0.8125 4.36978 0.8125 5.65295C0.8125 6.93611 0.817926 7.09701 0.840922 7.60094C0.863881 8.10382 0.943759 8.44729 1.06055 8.74783C1.18129 9.05848 1.34285 9.32199 1.60552 9.58465C1.86818 9.84732 2.13166 10.0089 2.44235 10.1296C2.74288 10.2464 3.08635 10.3263 3.58924 10.3492C4.09319 10.3722 4.25406 10.3777 5.53722 10.3777C6.82039 10.3777 6.98133 10.3722 7.48521 10.3492C7.98814 10.3263 8.33157 10.2464 8.6321 10.1296C8.94279 10.0089 9.20631 9.84732 9.46897 9.58465C9.7316 9.32199 9.89316 9.05851 10.0139 8.74783C10.1307 8.44729 10.2106 8.10382 10.2335 7.60094C10.2565 7.09701 10.2619 6.93611 10.2619 5.65295C10.2619 4.36978 10.2565 4.20888 10.2335 3.70496C10.2106 3.20203 10.1307 2.8586 10.0139 2.55807C9.89316 2.24734 9.7316 1.98387 9.46897 1.72124C9.20631 1.45857 8.94279 1.29701 8.6321 1.17627C8.33157 1.05944 7.98814 0.979604 7.48521 0.956645C6.98133 0.933649 6.82039 0.928223 5.53722 0.928223ZM5.53714 1.77954C6.79872 1.77954 6.94814 1.78434 7.44634 1.80708C7.907 1.82812 8.15715 1.90508 8.3237 1.96975C8.54417 2.05546 8.7016 2.15789 8.86689 2.32318C9.03226 2.48851 9.13461 2.64594 9.22036 2.86645C9.28507 3.03296 9.36203 3.28315 9.38303 3.74377C9.40577 4.24197 9.41057 4.39139 9.41057 5.65296C9.41057 6.9145 9.40577 7.06392 9.38303 7.56212C9.36203 8.02282 9.28507 8.27297 9.22036 8.43948C9.13461 8.65999 9.03226 8.81738 8.86689 8.98275C8.7016 9.14804 8.54417 9.25047 8.3237 9.33614C8.15715 9.40085 7.907 9.47781 7.44634 9.49885C6.94821 9.52155 6.79879 9.52635 5.53714 9.52635C4.27553 9.52635 4.12607 9.52155 3.62795 9.49885C3.16732 9.47781 2.91714 9.40085 2.75066 9.33614C2.53011 9.25047 2.37268 9.14804 2.20736 8.98275C2.04206 8.81738 1.93967 8.65999 1.85396 8.43948C1.78925 8.27297 1.71229 8.02282 1.69129 7.56216C1.66852 7.06392 1.66372 6.9145 1.66372 5.65296C1.66372 4.39139 1.66852 4.24197 1.69129 3.74377C1.71229 3.28315 1.78925 3.03296 1.85396 2.86645C1.93967 2.64594 2.04206 2.48851 2.20736 2.32318C2.37268 2.15789 2.53011 2.05546 2.75066 1.96975C2.91714 1.90508 3.16732 1.82812 3.62795 1.80708C4.12615 1.78434 4.2756 1.77954 5.53714 1.77954Z" fill="#55BC7E"/>
</svg>
