<?xml version="1.0" encoding="UTF-8"?>
<!DOCTYPE svg PUBLIC "-//W3C//DTD SVG 1.1//EN" "http://www.w3.org/Graphics/SVG/1.1/DTD/svg11.dtd">
<!-- Creator: CorelDRAW 2019 (64-Bit) -->
<svg xmlns="http://www.w3.org/2000/svg" xml:space="preserve" width="3.59658in" height="4.31365in" version="1.1" style="shape-rendering:geometricPrecision; text-rendering:geometricPrecision; image-rendering:optimizeQuality; fill-rule:evenodd; clip-rule:evenodd"
viewBox="0 0 3596.57 4313.64"
 xmlns:xlink="http://www.w3.org/1999/xlink"
 xmlns:xodm="http://www.corel.com/coreldraw/odm/2003">
 <defs>
  <style type="text/css">
   <![CDATA[
    .fil0 {fill:#EBEBEB;fill-rule:nonzero}
   ]]>
  </style>
 </defs>
 <g id="Layer_x0020_1">
  <metadata id="CorelCorpID_0Corel-Layer"/>
  <g id="_1821852498032">
   <path class="fil0" d="M2440.36 0l-2303.17 3754.54c-119.6,194.97 -147.63,328.46 -134.05,421.35 9.15,62.62 37.3,106.28 68.95,137.76l30.15 0c-38,-31.26 -75.53,-77.49 -86.09,-149.71 -12.77,-87.43 14.22,-214.06 128.69,-400.67l2308.51 -3763.26 -12.98 0z"/>
   <path class="fil0" d="M2504.59 0l-2194.59 3602.56c-117.8,193.37 -145.46,326.52 -132.17,419.62 13.19,92.4 66.93,144.3 112.51,176.61l162 114.85 35.71 0 -188.05 -133.32c-44.32,-31.42 -96.54,-81.63 -109.16,-170.02 -12.52,-87.67 14.12,-214.03 126.9,-399.16l2199.81 -3611.13 -12.97 0z"/>
   <path class="fil0" d="M2568.88 0l-2088.7 3452.91c-116.04,191.82 -143.35,324.64 -130.33,417.94 12.93,92.63 65.76,145.3 110.57,178.26l359.66 264.53 34.78 0 -384.68 -282.93c-43.6,-32.07 -94.96,-83.06 -107.32,-171.68 -12.27,-87.93 14.03,-214.02 125.11,-397.65l2093.83 -3461.38 -12.92 0z"/>
   <path class="fil0" d="M2633.19 0l-1985.47 3305.56c-114.31,190.31 -141.26,322.79 -128.51,416.33 12.65,92.78 64.61,146.22 108.69,179.83l540.2 411.92 33.81 0 -564.2 -430.21c-42.87,-32.69 -93.38,-84.44 -105.5,-173.37 -12.02,-88.17 13.93,-213.95 123.35,-396.12l1990.51 -3313.95 -12.88 0z"/>
   <path class="fil0" d="M2697.52 0l-1884.86 3160.5c-112.6,188.81 -139.21,320.97 -126.72,414.69 12.38,93.05 63.47,147.24 106.82,181.48l705 556.97 33.1 0 -728.18 -575.29c-42.18,-33.32 -91.86,-85.81 -103.73,-174.92 -11.78,-88.42 13.84,-213.93 121.62,-394.66l1889.79 -3168.78 -12.84 0z"/>
   <path class="fil0" d="M2761.87 0l-1786.79 3017.67c-110.93,187.33 -137.2,319.16 -124.98,413.09 12.13,93.24 62.37,148.17 105,183.04l855.54 699.84 32.24 0 -877.8 -718.05c-41.48,-33.94 -90.34,-87.16 -101.96,-176.52 -11.53,-88.67 13.74,-213.92 119.91,-393.24l1791.64 -3025.84 -12.79 0z"/>
   <path class="fil0" d="M2826.21 0l-1691.27 2877.07c-109.26,185.87 -135.2,317.39 -123.24,411.5 11.87,93.41 61.27,149.08 103.2,184.58l992.9 840.49 31.52 0 -1014.34 -858.64c-40.79,-34.54 -88.83,-88.48 -100.21,-178.09 -11.3,-88.91 13.64,-213.9 118.23,-391.81l1695.99 -2885.11 -12.78 0z"/>
   <path class="fil0" d="M2890.57 0l-1598.2 2738.63c-107.64,184.44 -133.25,315.63 -121.54,409.94 11.62,93.61 60.2,149.99 101.45,186.09l1118.21 978.99 30.74 0 -1138.83 -997.03c-40.11,-35.13 -87.34,-89.78 -98.5,-179.64 -11.06,-89.15 13.56,-213.87 116.59,-390.42l1602.81 -2746.55 -12.73 0z"/>
   <path class="fil0" d="M2954.89 0l-1507.51 2602.28c-106.04,183.05 -131.32,313.96 -119.86,408.48 11.37,93.78 59.13,150.87 99.68,187.56l1232.39 1115.33 30.09 0 -1252.26 -1133.31c-39.47,-35.71 -85.91,-91.07 -96.84,-181.17 -10.84,-89.36 13.47,-213.8 114.96,-388.99l1512.08 -2610.17 -12.74 0z"/>
   <path class="fil0" d="M3019.22 0l-1419.24 2468.08c-104.45,181.65 -129.41,312.24 -118.2,406.96 11.13,93.99 58.08,151.78 97.96,189.06l1336.33 1249.55 29.48 0 -1355.53 -1267.5c-38.81,-36.29 -84.48,-92.33 -95.18,-182.63 -10.61,-89.59 13.38,-213.8 113.35,-387.65l1423.72 -2475.86 -12.69 0z"/>
   <path class="fil0" d="M3083.53 0l-1333.3 2335.95c-102.9,180.28 -127.55,310.57 -116.58,405.45 10.89,94.21 57.04,152.68 96.25,190.54l1430.87 1381.71 28.91 0 -1449.39 -1399.6c-38.18,-36.87 -83.1,-93.61 -93.57,-184.1 -10.39,-89.82 13.3,-213.77 111.78,-386.32l1337.68 -2343.62 -12.65 0z"/>
   <path class="fil0" d="M3147.8 0l-1249.65 2205.87c-101.35,178.89 -125.68,308.89 -114.96,403.96 10.67,94.38 56.03,153.52 94.59,191.96l1516.71 1511.85 28.29 0 -1534.57 -1529.65c-37.55,-37.43 -81.71,-94.83 -91.96,-185.55 -10.17,-90.04 13.22,-213.76 110.26,-385.04l1253.92 -2213.41 -12.64 0z"/>
   <path class="fil0" d="M3212.03 0l-1168.23 2077.78c-99.84,177.57 -123.87,307.28 -113.38,402.52 10.43,94.59 55.02,154.39 92.93,193.37l1573.23 1618.07 0 -28.57 -1562.69 -1607.22c-36.94,-37.99 -80.38,-96.06 -90.4,-186.96 -9.95,-90.27 13.15,-213.76 108.72,-383.76l1172.42 -2085.22 -12.6 0z"/>
   <path class="fil0" d="M3276.21 0l-1089.02 1951.67c-98.35,176.27 -122.09,305.7 -111.82,401.12 10.2,94.73 54.04,155.18 91.31,194.72l1429.89 1516.79 0 -28.86 -1419.29 -1505.56c-36.33,-38.53 -79.03,-97.25 -88.85,-188.42 -9.74,-90.47 13.06,-213.71 107.22,-382.46l1093.12 -1959.01 -12.57 0z"/>
   <path class="fil0" d="M3340.34 0l-1011.96 1827.51c-96.9,174.98 -120.33,304.13 -110.3,399.72 9.97,94.88 53.08,155.98 89.74,196.07l1288.75 1409.44 0 -29.17 -1278.12 -1397.8c-35.71,-39.07 -77.7,-98.42 -87.3,-189.8 -9.53,-90.69 12.98,-213.69 105.74,-381.23l1015.98 -1834.75 -12.54 0z"/>
   <path class="fil0" d="M3404.41 0l-937.03 1705.27c-95.48,173.76 -118.63,302.61 -108.81,398.35 9.75,95.09 52.12,156.82 88.17,197.44l1149.83 1295.99 0 -29.65 -1139.09 -1283.87c-35.12,-39.59 -76.41,-99.56 -85.79,-191.13 -9.32,-90.91 12.89,-213.7 104.26,-380l940.95 -1712.4 -12.5 0z"/>
   <path class="fil0" d="M3468.4 0l-864.18 1584.94c-94.04,172.46 -116.91,301.06 -107.3,396.99 9.53,95.22 51.19,157.57 86.63,198.73l1013.03 1176.32 0 -29.98 -1002.23 -1163.77c-34.53,-40.11 -75.12,-100.71 -84.3,-192.52 -9.12,-91.1 12.82,-213.65 102.86,-378.78l867.99 -1591.92 -12.49 0z"/>
   <path class="fil0" d="M3532.33 0l-793.37 1466.47c-92.63,171.23 -115.21,299.54 -105.83,395.61 9.31,95.37 50.27,158.35 85.12,200.02l878.33 1050.38 0 -30.3 -867.48 -1037.42c-33.96,-40.6 -73.85,-101.83 -82.84,-193.84 -8.92,-91.33 12.75,-213.68 101.45,-377.64l797.06 -1473.29 -12.42 0z"/>
   <path class="fil0" d="M3596.17 0l-724.54 1349.81c-91.27,170.04 -113.57,298.06 -104.4,394.28 9.11,95.54 49.36,159.11 83.63,201.3l745.72 918.15 0 -30.66 -734.82 -904.72c-33.39,-41.11 -72.62,-102.93 -81.4,-195.15 -8.72,-91.54 12.67,-213.67 100.06,-376.47l716.16 -1334.2 0 -22.32 -0.4 0z"/>
   <path class="fil0" d="M3596.57 118.94l-594.32 1116.01c-89.92,168.84 -111.94,296.62 -102.98,393.01 8.9,95.7 48.46,159.86 82.13,202.53l615.18 779.56 0 -31.12 -604.17 -765.62c-32.84,-41.63 -71.43,-104.05 -80.02,-196.44 -8.52,-91.73 12.6,-213.65 98.7,-375.31l585.49 -1099.43 0 -23.19z"/>
   <path class="fil0" d="M3596.57 240.35l-465.72 881.51c-88.58,167.67 -110.33,295.17 -101.58,391.71 8.7,95.9 47.58,160.65 80.67,203.8l486.63 634.5 0 -31.57 -475.57 -620.08c-32.3,-42.11 -70.22,-105.12 -78.61,-197.68 -8.33,-91.93 12.53,-213.65 97.35,-374.18l456.84 -864.7 0 -23.32z"/>
   <path class="fil0" d="M3596.57 363.46l-339.13 647.06c-87.25,166.47 -108.73,293.73 -100.18,390.43 8.5,96.04 46.71,161.37 79.26,205.01l360.05 482.92 0 -31.94 -348.95 -468.02c-31.76,-42.59 -69.04,-106.17 -77.24,-198.92 -8.15,-92.12 12.47,-213.63 96.05,-373.11l330.14 -629.91 0 -23.53z"/>
   <path class="fil0" d="M3596.57 488.38l-214.47 412.52c-85.97,165.34 -107.18,292.35 -98.83,389.2 8.3,96.17 45.85,162.05 77.85,206.18l235.44 324.74 0 -32.33 -224.29 -309.35c-31.22,-43.06 -67.87,-107.22 -75.89,-200.19 -7.95,-92.3 12.41,-213.59 94.75,-371.99l205.43 -395.13 0 -23.66z"/>
   <path class="fil0" d="M3596.57 615.09l-91.73 177.89c-84.69,164.21 -105.65,290.97 -97.5,387.96 8.11,96.32 45.02,162.76 76.48,207.35l112.76 159.88 0 -32.73 -101.54 -143.99c-30.7,-43.54 -66.73,-108.24 -74.57,-201.4 -7.77,-92.48 12.33,-213.59 93.47,-370.92l82.64 -160.24 0 -23.8z"/>
   <path class="fil0" d="M3596.57 747.76c-59.16,134.06 -74,241.04 -67.07,325.69 7.23,88.23 38.18,151.78 67.07,196.46l0 -35.11c-24.47,-42.06 -47.9,-98.33 -53.95,-172.17 -6.2,-75.61 5.89,-170.02 53.95,-287.07l0 -27.8z"/>
  </g>
 </g>
</svg>
