<svg width="56" height="46" viewBox="0 0 56 46" fill="none" xmlns="http://www.w3.org/2000/svg">
<g clip-path="url(#clip0)">
<path d="M42.0008 0C38.5008 0 35.1008 1.4 32.7008 3.9C30.2008 6.4 28.8008 9.7 28.8008 13.2C28.8008 15.1 29.2008 17 30.0008 18.8L28.0008 24.3C27.9008 24.4 27.9008 24.6 28.0008 24.8C28.0008 25 28.1008 25.1 28.2008 25.2C28.3008 25.3 28.4008 25.4 28.6008 25.5C28.7008 25.6 28.9008 25.6 29.1008 25.5L35.5008 24.6C37.2008 25.6 39.2008 26.2 41.2008 26.4C43.2008 26.6 45.3008 26.2 47.1008 25.5C49.0008 24.7 50.7008 23.5 52.0008 22C53.3008 20.5 54.3008 18.7 54.9008 16.7C55.4008 14.7 55.5008 12.7 55.1008 10.7C54.7008 8.7 53.9008 6.8 52.6008 5.2C51.4008 3.6 49.8008 2.3 48.0008 1.4C46.1008 0.5 44.1008 0 42.0008 0ZM42.0008 24.6C39.9008 24.6 37.8008 24 36.0008 22.8C35.9008 22.7 35.7008 22.7 35.5008 22.7H35.4008L30.2008 23.5L31.9008 19C31.9008 18.9 32.0008 18.8 32.0008 18.7C32.0008 18.6 32.0008 18.5 31.9008 18.4C30.8008 16.2 30.4008 13.6 30.9008 11.2C31.4008 8.8 32.6008 6.5 34.4008 4.9C36.2008 3.3 38.6008 2.2 41.1008 2C43.6008 1.8 46.1008 2.4 48.2008 3.7C50.3008 5 51.9008 7 52.8008 9.3C53.7008 11.6 53.8008 14.2 53.1008 16.6C52.4008 19 51.0008 21.1 49.0008 22.6C46.9008 23.8 44.5008 24.6 42.0008 24.6Z" fill="#FF5670"/>
<path d="M12.8 26.5002C14.6 26.5002 16.4 26.0002 18 24.9002C19.5 23.9002 20.7 22.4002 21.4 20.7002C22.1 19.0002 22.3 17.1002 21.9 15.3002C21.5 13.5002 20.7 11.8002 19.4 10.5002C18.1 9.20023 16.4 8.30023 14.6 8.00023C12.9 7.70023 11 7.90023 9.3 8.60023C7.6 9.30023 6.1 10.5002 5.1 12.0002C4.1 13.5002 3.5 15.3002 3.5 17.2002C3.5 19.7002 4.5 22.0002 6.2 23.8002C8 25.5002 10.4 26.5002 12.8 26.5002ZM12.8 9.70023C14.3 9.70023 15.7 10.1002 16.9 11.0002C18.1 11.8002 19.1 13.0002 19.6 14.3002C20.1 15.6002 20.3 17.2002 20 18.6002C19.7 20.0002 19 21.4002 18 22.4002C17 23.4002 15.6 24.2002 14.2 24.4002C12.8 24.7002 11.3 24.5002 9.9 24.0002C8.5 23.4002 7.4 22.5002 6.6 21.3002C5.8 20.1002 5.3 18.6002 5.3 17.2002C5.3 15.2002 6.1 13.3002 7.5 11.9002C9 10.5002 10.9 9.70023 12.8 9.70023Z" fill="#FF5670"/>
<path d="M37.4995 12.9999C37.1995 12.6999 36.7995 12.6999 36.3995 12.8999C36.0995 13.1999 36.0995 13.5999 36.2995 13.9999L37.4995 12.9999ZM40.3995 17.4999L39.8995 17.9999L40.4995 18.6999L40.9995 17.9999L40.3995 17.4999ZM47.9995 9.49989C48.2995 9.19989 48.1995 8.69989 47.8995 8.39989C47.5995 8.09989 47.0995 8.19989 46.7995 8.49989L47.9995 9.49989ZM36.3995 13.9999L39.8995 17.9999L40.9995 16.9999L37.4995 12.9999L36.3995 13.9999ZM40.9995 17.9999L47.9995 9.49989L46.7995 8.49989L39.7995 16.9999L40.9995 17.9999Z" fill="#FF5670"/>
<path d="M1 45V40.0843C1 33.9157 6.2 29 12.5 29C18.8 29 24 34.012 24 40.0843V45" stroke="#FF5670" stroke-width="1.76" stroke-miterlimit="10" stroke-linecap="round"/>
</g>
<defs>
<clipPath id="clip0">
<rect width="55.2" height="45.9" fill="white"/>
</clipPath>
</defs>
</svg>
