<svg width="71" height="86" viewBox="0 0 71 86" fill="none" xmlns="http://www.w3.org/2000/svg">
<circle opacity="0.7" cx="29.0195" cy="29" r="29" fill="#FFECE2"/>
<path d="M68.2059 46.8338C68.1423 46.0415 67.782 45.3024 67.197 44.7642C66.6121 44.226 65.8456 43.9285 65.0507 43.931H59.6448V37.6207C59.6448 34.2735 58.3152 31.0634 55.9483 28.6965C53.5815 26.3297 50.3714 25 47.0242 25C43.6769 25 40.4668 26.3297 38.1 28.6965C35.7331 31.0634 34.4035 34.2735 34.4035 37.6207V43.931H28.9871C28.1922 43.9285 27.4257 44.226 26.8407 44.7642C26.2558 45.3024 25.8955 46.0415 25.8319 46.8338L23.0028 82.5924C22.9849 83.0242 23.0538 83.4553 23.2056 83.8599C23.3573 84.2646 23.5888 84.6347 23.8862 84.9483C24.1779 85.2744 24.5342 85.5364 24.9325 85.7174C25.3309 85.8985 25.7625 85.9947 26.2 86H67.8904C68.3207 85.989 68.7443 85.89 69.135 85.7091C69.5257 85.5282 69.8752 85.2693 70.1621 84.9483C70.4554 84.6254 70.6802 84.2465 70.823 83.8344C70.9658 83.4222 71.0236 82.9854 70.993 82.5504L68.2059 46.8338ZM36.5069 37.6207C36.5069 34.8313 37.615 32.1562 39.5873 30.1839C41.5597 28.2115 44.2348 27.1034 47.0242 27.1034C49.8135 27.1034 52.4886 28.2115 54.461 30.1839C56.4333 32.1562 57.5414 34.8313 57.5414 37.6207V43.931H36.5069V37.6207ZM68.6581 83.56C68.5601 83.6657 68.4413 83.7502 68.3092 83.8081C68.1771 83.866 68.0346 83.8961 67.8904 83.8966H26.1579C26.0137 83.8961 25.8712 83.866 25.7391 83.8081C25.607 83.7502 25.4883 83.6657 25.3902 83.56C25.2918 83.4529 25.2167 83.3266 25.1697 83.189C25.1226 83.0514 25.1046 82.9056 25.1167 82.7607L27.9354 47.0021C27.9566 46.738 28.0767 46.4916 28.2716 46.3122C28.4666 46.1328 28.7221 46.0336 28.9871 46.0345H34.4035V48.3272C33.7017 48.5753 33.1103 49.0635 32.7337 49.7055C32.3571 50.3475 32.2196 51.1019 32.3455 51.8355C32.4713 52.5691 32.8525 53.2345 33.4215 53.7143C33.9906 54.194 34.7109 54.4571 35.4552 54.4571C36.1995 54.4571 36.9198 54.194 37.4889 53.7143C38.0579 53.2345 38.4391 52.5691 38.5649 51.8355C38.6908 51.1019 38.5533 50.3475 38.1767 49.7055C37.8001 49.0635 37.2086 48.5753 36.5069 48.3272V46.0345H57.5414V48.3272C56.8397 48.5753 56.2482 49.0635 55.8716 49.7055C55.495 50.3475 55.3575 51.1019 55.4834 51.8355C55.6092 52.5691 55.9904 53.2345 56.5594 53.7143C57.1285 54.194 57.8488 54.4571 58.5931 54.4571C59.3374 54.4571 60.0577 54.194 60.6268 53.7143C61.1959 53.2345 61.577 52.5691 61.7029 51.8355C61.8287 51.1019 61.6912 50.3475 61.3146 49.7055C60.938 49.0635 60.3466 48.5753 59.6448 48.3272V46.0345H65.0612C65.3262 46.0336 65.5817 46.1328 65.7767 46.3122C65.9717 46.4916 66.0918 46.738 66.113 47.0021L68.9316 82.7607C68.9437 82.9056 68.9257 83.0514 68.8786 83.189C68.8316 83.3266 68.7565 83.4529 68.6581 83.56ZM36.5069 51.2931C36.5069 51.5011 36.4452 51.7045 36.3297 51.8774C36.2141 52.0504 36.0498 52.1852 35.8577 52.2648C35.6655 52.3444 35.454 52.3652 35.25 52.3246C35.046 52.284 34.8586 52.1839 34.7115 52.0368C34.5644 51.8897 34.4643 51.7023 34.4237 51.4983C34.3831 51.2943 34.4039 51.0828 34.4835 50.8906C34.5631 50.6985 34.6979 50.5342 34.8709 50.4186C35.0438 50.3031 35.2472 50.2414 35.4552 50.2414C35.7341 50.2414 36.0016 50.3522 36.1989 50.5494C36.3961 50.7467 36.5069 51.0142 36.5069 51.2931ZM59.6448 51.2931C59.6448 51.5011 59.5832 51.7045 59.4676 51.8774C59.352 52.0504 59.1878 52.1852 58.9956 52.2648C58.8034 52.3444 58.592 52.3652 58.3879 52.3246C58.1839 52.284 57.9965 52.1839 57.8494 52.0368C57.7024 51.8897 57.6022 51.7023 57.5616 51.4983C57.521 51.2943 57.5419 51.0828 57.6215 50.8906C57.7011 50.6985 57.8359 50.5342 58.0088 50.4186C58.1818 50.3031 58.3851 50.2414 58.5931 50.2414C58.8721 50.2414 59.1396 50.3522 59.3368 50.5494C59.534 50.7467 59.6448 51.0142 59.6448 51.2931Z" fill="#E4A788"/>
<path d="M47.025 55.5C44.5289 55.5 42.0888 56.2402 40.0133 57.627C37.9378 59.0137 36.3202 60.9848 35.365 63.291C34.4098 65.5971 34.1598 68.1347 34.6468 70.5829C35.1338 73.031 36.3358 75.2798 38.1008 77.0449C39.8659 78.8099 42.1146 80.0119 44.5628 80.4989C47.011 80.9858 49.5486 80.7359 51.8547 79.7807C54.1608 78.8255 56.1319 77.2078 57.5187 75.1324C58.9055 73.0569 59.6457 70.6168 59.6457 68.1207C59.6457 64.7735 58.316 61.5634 55.9492 59.1965C53.5823 56.8297 50.3722 55.5 47.025 55.5ZM47.025 78.6379C44.9449 78.6379 42.9115 78.0211 41.1819 76.8655C39.4524 75.7098 38.1044 74.0672 37.3083 72.1455C36.5123 70.2237 36.304 68.109 36.7098 66.0689C37.1156 64.0287 38.1173 62.1547 39.5882 60.6839C41.059 59.213 42.933 58.2113 44.9732 57.8055C47.0133 57.3997 49.128 57.608 51.0498 58.404C52.9715 59.2 54.6141 60.5481 55.7698 62.2776C56.9254 64.0072 57.5422 66.0406 57.5422 68.1207C57.5422 70.91 56.4342 73.5851 54.4618 75.5575C52.4894 77.5299 49.8143 78.6379 47.025 78.6379Z" fill="#E4A788"/>
<path d="M53.3345 67.0691H48.0759V61.8105C48.0759 61.5316 47.9651 61.2641 47.7679 61.0668C47.5706 60.8696 47.3031 60.7588 47.0242 60.7588C46.7452 60.7588 46.4777 60.8696 46.2805 61.0668C46.0833 61.2641 45.9725 61.5316 45.9725 61.8105V67.0691H40.7138C40.4349 67.0691 40.1674 67.1799 39.9702 67.3772C39.7729 67.5744 39.6621 67.8419 39.6621 68.1209C39.6621 68.3998 39.7729 68.6673 39.9702 68.8645C40.1674 69.0618 40.4349 69.1726 40.7138 69.1726H45.9725V74.4312C45.9725 74.7101 46.0833 74.9776 46.2805 75.1749C46.4777 75.3721 46.7452 75.4829 47.0242 75.4829C47.3031 75.4829 47.5706 75.3721 47.7679 75.1749C47.9651 74.9776 48.0759 74.7101 48.0759 74.4312V69.1726H53.3345C53.6135 69.1726 53.881 69.0618 54.0782 68.8645C54.2754 68.6673 54.3862 68.3998 54.3862 68.1209C54.3862 67.8419 54.2754 67.5744 54.0782 67.3772C53.881 67.1799 53.6135 67.0691 53.3345 67.0691Z" fill="#E4A788"/>
</svg>
