<svg width="90" height="89" viewBox="0 0 90 89" fill="none" xmlns="http://www.w3.org/2000/svg">
<circle cx="28.5039" cy="28.5" r="28.5" fill="#FFECE2" fill-opacity="0.7"/>
<g clip-path="url(#clip0)">
<path d="M29.3 71C28.6 71 28 70.4 28 69.7V35.2H74V54C74 54.5 74.4 55 74.9 55C75.5 55 75.9 54.6 75.9 54V26.3C76 24.5 74.5 23 72.7 23H29.3C27.5 23 26 24.5 26 26.3V34.3V69.8C26 71.5 27.5 73 29.3 73H55C55.5 73 56 72.6 56 72C56 71.4 55.6 71 55 71H29.3ZM28 26.3C28 25.6 28.6 25 29.3 25H72.8C73.4 25 74 25.6 74 26.3V33.3H28V26.3Z" fill="#E4A788"/>
<path fill-rule="evenodd" clip-rule="evenodd" d="M60.8 73.2C60.8 65.8 66.9 59.8 74.4 59.8C81.9 59.8 88 65.8 88 73.2C88 80.6 81.9 86.6 74.4 86.6C66.9 86.6 60.8 80.6 60.8 73.2ZM59 73.2C59 64.8 65.9 58 74.4 58C82.9 58 89.8 64.8 89.8 73.2C89.8 81.6 82.9 88.4 74.4 88.4C65.9 88.4 59 81.6 59 73.2ZM81.3 69.3C81.6 68.9 81.6 68.4 81.3 68C80.9 67.7 80.4 67.7 80 68L72 76.4L68.7 73C68.4 72.6 67.8 72.6 67.4 73C67 73.3 67 73.9 67.4 74.3L71.3 78.4C71.5 78.6 71.7 78.7 72 78.7C72.2 78.7 72.5 78.6 72.7 78.4L81.3 69.3Z" fill="#E4A788"/>
<path d="M34.9992 29.1001C34.9992 28.5001 34.5992 28.1001 33.9992 28.1001H32.6992C32.0992 28.1001 31.6992 28.5001 31.6992 29.1001C31.6992 29.7001 32.0992 30.1001 32.6992 30.1001H33.9992C34.5992 30.1001 34.9992 29.7001 34.9992 29.1001Z" fill="#E4A788"/>
<path d="M39.7004 29.1001C39.7004 28.5001 39.3004 28.1001 38.7004 28.1001H37.4004C36.8004 28.1001 36.4004 28.5001 36.4004 29.1001C36.4004 29.7001 36.8004 30.1001 37.4004 30.1001H38.7004C39.2004 30.1001 39.7004 29.7001 39.7004 29.1001Z" fill="#E4A788"/>
<path d="M44.3 29.1001C44.3 28.5001 43.9 28.1001 43.3 28.1001H42C41.4 28.1001 41 28.5001 41 29.1001C41 29.7001 41.4 30.1001 42 30.1001H43.3C43.9 30.1001 44.3 29.7001 44.3 29.1001Z" fill="#E4A788"/>
<path d="M50.1 53.9C54.4 53.9 58.2 56.4 59.9 60.4C60.1 60.9 60.7 61.1 61.2 60.9C61.7 60.7 61.9 60.1 61.7 59.6C60.3 56.2 57.5 53.7 54.2 52.6C56.1 51.3 57.3 49.1 57.3 46.7C57.3 42.7 54.1 39.5 50.1 39.5C46.1 39.5 42.9 42.7 42.9 46.7C42.9 49.2 44.1 51.3 46 52.6C41.1 54.3 37.5 59 37.5 64.5C37.5 65.1 37.9 65.5 38.5 65.5H55.9C56.5 65.5 56.9 65.1 56.9 64.5C56.9 63.9 56.5 63.5 55.9 63.5H39.6C40.1 58.1 44.6 53.9 50.1 53.9ZM44.9 46.7C44.9 43.8 47.2 41.5 50.1 41.5C53 41.5 55.3 43.8 55.3 46.7C55.3 49.6 53 51.9 50.1 51.9C47.2 51.9 44.9 49.6 44.9 46.7Z" fill="#E4A788"/>
</g>
<defs>
<clipPath id="clip0">
<rect width="63.7" height="65.4" fill="white" transform="translate(26 23)"/>
</clipPath>
</defs>
</svg>
