<svg width="86" height="90" viewBox="0 0 86 90" fill="none" xmlns="http://www.w3.org/2000/svg">
<circle opacity="0.7" cx="28.0195" cy="28" r="28" fill="#FFECE2"/>
<g clip-path="url(#clip0)">
<path fill-rule="evenodd" clip-rule="evenodd" d="M70.3 60.8C62.8 60.8 56.7 66.8 56.7 74.2C56.7 81.6 62.8 87.6 70.3 87.6C77.8 87.6 83.9 81.6 83.9 74.2C83.9 66.8 77.8 60.8 70.3 60.8ZM70.3 59C61.8 59 55 65.8 55 74.2C55 82.6 61.9 89.4 70.4 89.4C78.9 89.4 85.8 82.6 85.8 74.2C85.8 65.8 78.8 59 70.3 59Z" fill="#E4A788"/>
<path d="M82.5 22C82.5 19.2 78.1 17 72.3 17C66.5 17 62 19.2 62 22C62 22.1 62 22.1 62 22.2C62 22.2 62 22.3 62 22.4V30.5C62 31 62.4 31.4 62.9 31.4C63.4 31.4 63.8 31 63.8 30.5V30.1C65.6 31.4 68.6 32.1 72.1 32.1C75.6 32.1 78.6 31.3 80.4 30.1V32.2C80.4 33.5 77.2 35.3 72.1 35.3H71.6C71.1 35.3 70.6 35.3 70.1 35.2C69.6 35.2 69.1 35.5 69 36C69 36.5 69.3 37 69.8 37.1C70.3 37.1 70.7 37.2 71.3 37.2H72.1C75.6 37.2 78.6 36.4 80.4 35.2V37.3C80.4 38.6 77.2 40.4 72.1 40.4H71.7C71.2 40.4 70.7 40.4 70.2 40.3C69.7 40.3 69.2 40.6 69.1 41.1C69.1 41.6 69.4 42.1 69.9 42.2C70.4 42.2 70.8 42.3 71.4 42.3H72.2C75.7 42.3 78.7 41.5 80.5 40.3V42.4C80.5 43.7 77.3 45.5 72.2 45.5H71.8C71.3 45.5 70.8 45.5 70.3 45.4C69.8 45.4 69.3 45.7 69.2 46.2C69.2 46.7 69.5 47.2 70 47.3C70.5 47.3 70.9 47.4 71.5 47.4H72.3C75.8 47.4 78.8 46.6 80.6 45.4V47.5C80.6 48.8 77.4 50.6 72.3 50.6H71.9C71.4 50.6 70.9 50.6 70.4 50.5C69.9 50.5 69.4 50.8 69.3 51.3C69.3 51.8 69.6 52.3 70.1 52.4C70.6 52.4 71 52.5 71.6 52.5H72.4C78.2 52.5 82.6 50.3 82.6 47.5V22.5C82.6 22.5 82.6 22.4 82.6 22.3C82.5 22.2 82.5 22.1 82.5 22ZM72.2 18.9C77.4 18.9 80.5 20.7 80.5 22C80.5 23.3 77.3 25.1 72.2 25.1C67.1 25.1 63.9 23.4 63.9 22C63.9 20.7 67 18.9 72.2 18.9ZM72.2 30.2C67 30.2 63.9 28.4 63.9 27.1V25C65.7 26.3 68.7 27 72.2 27C75.7 27 78.7 26.2 80.5 25V27.1C80.6 28.4 77.4 30.2 72.2 30.2Z" fill="#E4A788"/>
<path d="M32.9 35.8999C32.7 35.8999 32.4 35.9999 32.2 36.1999C32.1 36.3999 32 36.5999 32 36.8999V41.8999H29H28.9C28.7 41.8999 28.4 41.9999 28.2 42.1999C28.1 42.3999 28 42.6999 28 42.8999V50.8999H27H26.9C26.7 50.8999 26.4 50.9999 26.2 51.1999C26.1 51.3999 26 51.6999 26 51.8999V59.8999C26 60.1999 26.1 60.3999 26.3 60.5999C26.5 60.7999 26.7 60.8999 27 60.8999H28V68.5999C27.9 68.7999 27.9 69.0999 28 69.2999C28.1 69.4999 28.2 69.6999 28.4 69.7999H28.5C28.5 69.7999 28.5 69.7999 28.6 69.7999C28.7 69.7999 28.8 69.7999 29 69.7999H51.4C51.5 69.7999 51.7 69.7999 51.8 69.6999C51.9 69.6999 52 69.5999 52.1 69.4999C52.2 69.3999 52.3 69.2999 52.3 69.1999C52.4 69.0999 52.4 68.8999 52.4 68.7999C52.4 68.6999 52.4 68.4999 52.3 68.3999C52.2 68.2999 52.2 68.1999 52.1 68.0999C52.3 68.0999 52.2 67.9999 52 67.9999C51.9 67.9999 51.7 67.8999 51.6 67.8999H30V60.8999H45.1C45.4 60.8999 45.6 60.7999 45.8 60.5999C46 60.3999 46.1 60.1999 46.1 59.8999V51.8999C46.1 51.5999 46 51.3999 45.8 51.1999C45.6 50.9999 45.4 50.8999 45.1 50.8999H30V43.8999H60.7H61.7C62.2 43.8999 62.7 43.7999 63.2 43.5999V56.4999C63.2 56.5999 63.2 56.7999 63.3 56.8999C63.3 56.9999 63.4 57.0999 63.5 57.1999C63.6 57.2999 63.7 57.3999 63.8 57.3999C63.9 57.4999 64.1 57.4999 64.2 57.4999C64.3 57.4999 64.5 57.4999 64.6 57.3999C64.7 57.2999 64.8 57.2999 64.9 57.1999C65 57.0999 65.1 56.9999 65.1 56.8999C65.1 56.7999 65.2 56.5999 65.2 56.4999V40.4999V39.9999V39.8999V39.4999C65.2 37.5999 63.6 35.9999 61.7 35.9999L32.9 35.8999C33 35.8999 33 35.8999 32.9 35.8999ZM34 37.8999H61.6C62.5 37.8999 63.1 38.5999 63.1 39.3999V39.7999V39.8999V40.3999C63.1 41.1999 62.4 41.8999 61.6 41.8999H60.6H34V37.8999ZM28 52.8999H44.1V58.8999H28V52.8999ZM41.1 53.3999C39.7 53.3999 38.6 54.4999 38.6 55.8999C38.6 57.2999 39.7 58.3999 41.1 58.3999C42.5 58.3999 43.6 57.2999 43.6 55.8999C43.6 54.4999 42.5 53.3999 41.1 53.3999ZM41.1 54.9999C41.6 54.9999 42 55.3999 42 55.8999C42 56.3999 41.6 56.7999 41.1 56.7999C40.6 56.7999 40.2 56.3999 40.2 55.8999C40.1 55.3999 40.5 54.9999 41.1 54.9999Z" fill="#E4A788"/>
<path d="M76.2992 74.6001C75.8992 74.2001 75.3992 74.2001 74.9992 74.6001L70.7992 78.8001V67.0001C70.7992 66.5001 70.3992 66.1001 69.8992 66.1001C69.3992 66.1001 68.9992 66.5001 68.9992 67.0001V78.8001L64.7992 74.6001C64.3992 74.2001 63.8992 74.2001 63.4992 74.6001C63.0992 75.0001 63.0992 75.5001 63.4992 75.9001L69.1992 81.6001C69.5992 82.0001 70.0992 82.0001 70.4992 81.6001L76.1992 75.9001C76.6992 75.6001 76.6992 75.0001 76.2992 74.6001Z" fill="#E4A788"/>
</g>
<defs>
<clipPath id="clip0">
<rect width="59.7" height="72.4" fill="white" transform="translate(26 17)"/>
</clipPath>
</defs>
</svg>
