<svg width="262" height="262" viewBox="0 0 262 262" fill="none" xmlns="http://www.w3.org/2000/svg">
<mask id="mask0" mask-type="alpha" maskUnits="userSpaceOnUse" x="0" y="0" width="262" height="262">
<circle cx="131" cy="131" r="131" fill="#C4C4C4"/>
</mask>
<g mask="url(#mask0)">
<path fill-rule="evenodd" clip-rule="evenodd" d="M15.1583 2H13V4.15833C14.1871 4.15833 15.1583 3.18708 15.1583 2ZM34.5833 4.15833C35.7704 4.15833 36.7417 3.18708 36.7417 2H32.425C32.425 3.18708 33.3962 4.15833 34.5833 4.15833ZM58.325 2C58.325 3.18708 57.3537 4.15833 56.1667 4.15833C54.9796 4.15833 54.0083 3.18708 54.0083 2H58.325ZM77.75 4.15833C78.9371 4.15833 79.9083 3.18708 79.9083 2H75.5917C75.5917 3.18708 76.5629 4.15833 77.75 4.15833ZM101.492 2C101.492 3.18708 100.52 4.15833 99.3333 4.15833C98.1462 4.15833 97.175 3.18708 97.175 2H101.492ZM120.917 4.15833C122.104 4.15833 123.075 3.18708 123.075 2H118.758C118.758 3.18708 119.73 4.15833 120.917 4.15833ZM144.658 2C144.658 3.18708 143.687 4.15833 142.5 4.15833C141.313 4.15833 140.342 3.18708 140.342 2H144.658ZM164.083 4.15833C165.27 4.15833 166.242 3.18708 166.242 2H161.925C161.925 3.18708 162.896 4.15833 164.083 4.15833ZM187.825 2C187.825 3.18708 186.854 4.15833 185.667 4.15833C184.48 4.15833 183.508 3.18708 183.508 2H187.825ZM207.25 4.15833C208.437 4.15833 209.408 3.18708 209.408 2H205.092C205.092 3.18708 206.063 4.15833 207.25 4.15833ZM230.992 2C230.992 3.18708 230.02 4.15833 228.833 4.15833C227.646 4.15833 226.675 3.18708 226.675 2H230.992ZM250.417 4.15833C251.604 4.15833 252.575 3.18708 252.575 2H248.258C248.258 3.18708 249.23 4.15833 250.417 4.15833ZM272 2V4.15833C270.813 4.15833 269.842 3.18708 269.842 2H272ZM15.1583 23.5833C15.1583 22.3962 14.1871 21.425 13 21.425V25.7417C14.1871 25.7417 15.1583 24.7704 15.1583 23.5833ZM36.7417 23.5833C36.7417 24.7753 35.7753 25.7417 34.5833 25.7417C33.3913 25.7417 32.425 24.7753 32.425 23.5833C32.425 22.3913 33.3913 21.425 34.5833 21.425C35.7753 21.425 36.7417 22.3913 36.7417 23.5833ZM56.1667 25.7417C57.3587 25.7417 58.325 24.7753 58.325 23.5833C58.325 22.3913 57.3587 21.425 56.1667 21.425C54.9746 21.425 54.0083 22.3913 54.0083 23.5833C54.0083 24.7753 54.9746 25.7417 56.1667 25.7417ZM79.9083 23.5833C79.9083 24.7753 78.942 25.7417 77.75 25.7417C76.558 25.7417 75.5917 24.7753 75.5917 23.5833C75.5917 22.3913 76.558 21.425 77.75 21.425C78.942 21.425 79.9083 22.3913 79.9083 23.5833ZM99.3333 25.7417C100.525 25.7417 101.492 24.7753 101.492 23.5833C101.492 22.3913 100.525 21.425 99.3333 21.425C98.1413 21.425 97.175 22.3913 97.175 23.5833C97.175 24.7753 98.1413 25.7417 99.3333 25.7417ZM123.075 23.5833C123.075 24.7753 122.109 25.7417 120.917 25.7417C119.725 25.7417 118.758 24.7753 118.758 23.5833C118.758 22.3913 119.725 21.425 120.917 21.425C122.109 21.425 123.075 22.3913 123.075 23.5833ZM142.5 25.7417C143.692 25.7417 144.658 24.7753 144.658 23.5833C144.658 22.3913 143.692 21.425 142.5 21.425C141.308 21.425 140.342 22.3913 140.342 23.5833C140.342 24.7753 141.308 25.7417 142.5 25.7417ZM166.242 23.5833C166.242 24.7753 165.275 25.7417 164.083 25.7417C162.891 25.7417 161.925 24.7753 161.925 23.5833C161.925 22.3913 162.891 21.425 164.083 21.425C165.275 21.425 166.242 22.3913 166.242 23.5833ZM185.667 25.7417C186.859 25.7417 187.825 24.7753 187.825 23.5833C187.825 22.3913 186.859 21.425 185.667 21.425C184.475 21.425 183.508 22.3913 183.508 23.5833C183.508 24.7753 184.475 25.7417 185.667 25.7417ZM209.408 23.5833C209.408 24.7753 208.442 25.7417 207.25 25.7417C206.058 25.7417 205.092 24.7753 205.092 23.5833C205.092 22.3913 206.058 21.425 207.25 21.425C208.442 21.425 209.408 22.3913 209.408 23.5833ZM228.833 25.7417C230.025 25.7417 230.992 24.7753 230.992 23.5833C230.992 22.3913 230.025 21.425 228.833 21.425C227.641 21.425 226.675 22.3913 226.675 23.5833C226.675 24.7753 227.641 25.7417 228.833 25.7417ZM252.575 23.5833C252.575 24.7753 251.609 25.7417 250.417 25.7417C249.225 25.7417 248.258 24.7753 248.258 23.5833C248.258 22.3913 249.225 21.425 250.417 21.425C251.609 21.425 252.575 22.3913 252.575 23.5833ZM269.842 23.5833C269.842 24.7704 270.813 25.7417 272 25.7417V21.425C270.813 21.425 269.842 22.3962 269.842 23.5833ZM13 43.0083C14.1871 43.0083 15.1583 43.9796 15.1583 45.1667C15.1583 46.3537 14.1871 47.325 13 47.325V43.0083ZM34.5833 47.325C35.7753 47.325 36.7417 46.3587 36.7417 45.1667C36.7417 43.9746 35.7753 43.0083 34.5833 43.0083C33.3913 43.0083 32.425 43.9746 32.425 45.1667C32.425 46.3587 33.3913 47.325 34.5833 47.325ZM58.325 45.1667C58.325 46.3587 57.3587 47.325 56.1667 47.325C54.9746 47.325 54.0083 46.3587 54.0083 45.1667C54.0083 43.9746 54.9746 43.0083 56.1667 43.0083C57.3587 43.0083 58.325 43.9746 58.325 45.1667ZM77.75 47.325C78.942 47.325 79.9083 46.3587 79.9083 45.1667C79.9083 43.9746 78.942 43.0083 77.75 43.0083C76.558 43.0083 75.5917 43.9746 75.5917 45.1667C75.5917 46.3587 76.558 47.325 77.75 47.325ZM101.492 45.1667C101.492 46.3587 100.525 47.325 99.3333 47.325C98.1413 47.325 97.175 46.3587 97.175 45.1667C97.175 43.9746 98.1413 43.0083 99.3333 43.0083C100.525 43.0083 101.492 43.9746 101.492 45.1667ZM120.917 47.325C122.109 47.325 123.075 46.3587 123.075 45.1667C123.075 43.9746 122.109 43.0083 120.917 43.0083C119.725 43.0083 118.758 43.9746 118.758 45.1667C118.758 46.3587 119.725 47.325 120.917 47.325ZM144.658 45.1667C144.658 46.3587 143.692 47.325 142.5 47.325C141.308 47.325 140.342 46.3587 140.342 45.1667C140.342 43.9746 141.308 43.0083 142.5 43.0083C143.692 43.0083 144.658 43.9746 144.658 45.1667ZM164.083 47.325C165.275 47.325 166.242 46.3587 166.242 45.1667C166.242 43.9746 165.275 43.0083 164.083 43.0083C162.891 43.0083 161.925 43.9746 161.925 45.1667C161.925 46.3587 162.891 47.325 164.083 47.325ZM187.825 45.1667C187.825 46.3587 186.859 47.325 185.667 47.325C184.475 47.325 183.508 46.3587 183.508 45.1667C183.508 43.9746 184.475 43.0083 185.667 43.0083C186.859 43.0083 187.825 43.9746 187.825 45.1667ZM207.25 47.325C208.442 47.325 209.408 46.3587 209.408 45.1667C209.408 43.9746 208.442 43.0083 207.25 43.0083C206.058 43.0083 205.092 43.9746 205.092 45.1667C205.092 46.3587 206.058 47.325 207.25 47.325ZM230.992 45.1667C230.992 46.3587 230.025 47.325 228.833 47.325C227.641 47.325 226.675 46.3587 226.675 45.1667C226.675 43.9746 227.641 43.0083 228.833 43.0083C230.025 43.0083 230.992 43.9746 230.992 45.1667ZM250.417 47.325C251.609 47.325 252.575 46.3587 252.575 45.1667C252.575 43.9746 251.609 43.0083 250.417 43.0083C249.225 43.0083 248.258 43.9746 248.258 45.1667C248.258 46.3587 249.225 47.325 250.417 47.325ZM272 47.325C270.813 47.325 269.842 46.3537 269.842 45.1667C269.842 43.9796 270.813 43.0083 272 43.0083V47.325ZM15.1583 66.75C15.1583 65.5629 14.1871 64.5916 13 64.5916V68.9083C14.1871 68.9083 15.1583 67.9371 15.1583 66.75ZM36.7417 66.75C36.7417 67.942 35.7753 68.9083 34.5833 68.9083C33.3913 68.9083 32.425 67.942 32.425 66.75C32.425 65.558 33.3913 64.5916 34.5833 64.5916C35.7753 64.5916 36.7417 65.558 36.7417 66.75ZM56.1667 68.9083C57.3587 68.9083 58.325 67.942 58.325 66.75C58.325 65.558 57.3587 64.5916 56.1667 64.5916C54.9746 64.5916 54.0083 65.558 54.0083 66.75C54.0083 67.942 54.9746 68.9083 56.1667 68.9083ZM79.9083 66.75C79.9083 67.942 78.942 68.9083 77.75 68.9083C76.558 68.9083 75.5917 67.942 75.5917 66.75C75.5917 65.558 76.558 64.5916 77.75 64.5916C78.942 64.5916 79.9083 65.558 79.9083 66.75ZM99.3333 68.9083C100.525 68.9083 101.492 67.942 101.492 66.75C101.492 65.558 100.525 64.5916 99.3333 64.5916C98.1413 64.5916 97.175 65.558 97.175 66.75C97.175 67.942 98.1413 68.9083 99.3333 68.9083ZM123.075 66.75C123.075 67.942 122.109 68.9083 120.917 68.9083C119.725 68.9083 118.758 67.942 118.758 66.75C118.758 65.558 119.725 64.5916 120.917 64.5916C122.109 64.5916 123.075 65.558 123.075 66.75ZM142.5 68.9083C143.692 68.9083 144.658 67.942 144.658 66.75C144.658 65.558 143.692 64.5916 142.5 64.5916C141.308 64.5916 140.342 65.558 140.342 66.75C140.342 67.942 141.308 68.9083 142.5 68.9083ZM166.242 66.75C166.242 67.942 165.275 68.9083 164.083 68.9083C162.891 68.9083 161.925 67.942 161.925 66.75C161.925 65.558 162.891 64.5916 164.083 64.5916C165.275 64.5916 166.242 65.558 166.242 66.75ZM185.667 68.9083C186.859 68.9083 187.825 67.942 187.825 66.75C187.825 65.558 186.859 64.5916 185.667 64.5916C184.475 64.5916 183.508 65.558 183.508 66.75C183.508 67.942 184.475 68.9083 185.667 68.9083ZM209.408 66.75C209.408 67.942 208.442 68.9083 207.25 68.9083C206.058 68.9083 205.092 67.942 205.092 66.75C205.092 65.558 206.058 64.5916 207.25 64.5916C208.442 64.5916 209.408 65.558 209.408 66.75ZM228.833 68.9083C230.025 68.9083 230.992 67.942 230.992 66.75C230.992 65.558 230.025 64.5916 228.833 64.5916C227.641 64.5916 226.675 65.558 226.675 66.75C226.675 67.942 227.641 68.9083 228.833 68.9083ZM252.575 66.75C252.575 67.942 251.609 68.9083 250.417 68.9083C249.225 68.9083 248.258 67.942 248.258 66.75C248.258 65.558 249.225 64.5916 250.417 64.5916C251.609 64.5916 252.575 65.558 252.575 66.75ZM269.842 66.75C269.842 67.9371 270.813 68.9083 272 68.9083V64.5916C270.813 64.5916 269.842 65.5629 269.842 66.75ZM13 86.175C14.1871 86.175 15.1583 87.1462 15.1583 88.3333C15.1583 89.5204 14.1871 90.4917 13 90.4917V86.175ZM34.5833 90.4917C35.7753 90.4917 36.7417 89.5253 36.7417 88.3333C36.7417 87.1413 35.7753 86.175 34.5833 86.175C33.3913 86.175 32.425 87.1413 32.425 88.3333C32.425 89.5253 33.3913 90.4917 34.5833 90.4917ZM58.325 88.3333C58.325 89.5253 57.3587 90.4917 56.1667 90.4917C54.9746 90.4917 54.0083 89.5253 54.0083 88.3333C54.0083 87.1413 54.9746 86.175 56.1667 86.175C57.3587 86.175 58.325 87.1413 58.325 88.3333ZM77.75 90.4917C78.942 90.4917 79.9083 89.5253 79.9083 88.3333C79.9083 87.1413 78.942 86.175 77.75 86.175C76.558 86.175 75.5917 87.1413 75.5917 88.3333C75.5917 89.5253 76.558 90.4917 77.75 90.4917ZM101.492 88.3333C101.492 89.5253 100.525 90.4917 99.3333 90.4917C98.1413 90.4917 97.175 89.5253 97.175 88.3333C97.175 87.1413 98.1413 86.175 99.3333 86.175C100.525 86.175 101.492 87.1413 101.492 88.3333ZM120.917 90.4917C122.109 90.4917 123.075 89.5253 123.075 88.3333C123.075 87.1413 122.109 86.175 120.917 86.175C119.725 86.175 118.758 87.1413 118.758 88.3333C118.758 89.5253 119.725 90.4917 120.917 90.4917ZM144.658 88.3333C144.658 89.5253 143.692 90.4917 142.5 90.4917C141.308 90.4917 140.342 89.5253 140.342 88.3333C140.342 87.1413 141.308 86.175 142.5 86.175C143.692 86.175 144.658 87.1413 144.658 88.3333ZM164.083 90.4917C165.275 90.4917 166.242 89.5253 166.242 88.3333C166.242 87.1413 165.275 86.175 164.083 86.175C162.891 86.175 161.925 87.1413 161.925 88.3333C161.925 89.5253 162.891 90.4917 164.083 90.4917ZM187.825 88.3333C187.825 89.5253 186.859 90.4917 185.667 90.4917C184.475 90.4917 183.508 89.5253 183.508 88.3333C183.508 87.1413 184.475 86.175 185.667 86.175C186.859 86.175 187.825 87.1413 187.825 88.3333ZM207.25 90.4917C208.442 90.4917 209.408 89.5253 209.408 88.3333C209.408 87.1413 208.442 86.175 207.25 86.175C206.058 86.175 205.092 87.1413 205.092 88.3333C205.092 89.5253 206.058 90.4917 207.25 90.4917ZM230.992 88.3333C230.992 89.5253 230.025 90.4917 228.833 90.4917C227.641 90.4917 226.675 89.5253 226.675 88.3333C226.675 87.1413 227.641 86.175 228.833 86.175C230.025 86.175 230.992 87.1413 230.992 88.3333ZM250.417 90.4917C251.609 90.4917 252.575 89.5253 252.575 88.3333C252.575 87.1413 251.609 86.175 250.417 86.175C249.225 86.175 248.258 87.1413 248.258 88.3333C248.258 89.5253 249.225 90.4917 250.417 90.4917ZM272 90.4917C270.813 90.4917 269.842 89.5204 269.842 88.3333C269.842 87.1462 270.813 86.175 272 86.175V90.4917ZM15.1583 109.917C15.1583 108.73 14.1871 107.758 13 107.758V112.075C14.1871 112.075 15.1583 111.104 15.1583 109.917ZM36.7417 109.917C36.7417 111.109 35.7753 112.075 34.5833 112.075C33.3913 112.075 32.425 111.109 32.425 109.917C32.425 108.725 33.3913 107.758 34.5833 107.758C35.7753 107.758 36.7417 108.725 36.7417 109.917ZM56.1667 112.075C57.3587 112.075 58.325 111.109 58.325 109.917C58.325 108.725 57.3587 107.758 56.1667 107.758C54.9746 107.758 54.0083 108.725 54.0083 109.917C54.0083 111.109 54.9746 112.075 56.1667 112.075ZM79.9083 109.917C79.9083 111.109 78.942 112.075 77.75 112.075C76.558 112.075 75.5917 111.109 75.5917 109.917C75.5917 108.725 76.558 107.758 77.75 107.758C78.942 107.758 79.9083 108.725 79.9083 109.917ZM99.3333 112.075C100.525 112.075 101.492 111.109 101.492 109.917C101.492 108.725 100.525 107.758 99.3333 107.758C98.1413 107.758 97.175 108.725 97.175 109.917C97.175 111.109 98.1413 112.075 99.3333 112.075ZM123.075 109.917C123.075 111.109 122.109 112.075 120.917 112.075C119.725 112.075 118.758 111.109 118.758 109.917C118.758 108.725 119.725 107.758 120.917 107.758C122.109 107.758 123.075 108.725 123.075 109.917ZM142.5 112.075C143.692 112.075 144.658 111.109 144.658 109.917C144.658 108.725 143.692 107.758 142.5 107.758C141.308 107.758 140.342 108.725 140.342 109.917C140.342 111.109 141.308 112.075 142.5 112.075ZM166.242 109.917C166.242 111.109 165.275 112.075 164.083 112.075C162.891 112.075 161.925 111.109 161.925 109.917C161.925 108.725 162.891 107.758 164.083 107.758C165.275 107.758 166.242 108.725 166.242 109.917ZM185.667 112.075C186.859 112.075 187.825 111.109 187.825 109.917C187.825 108.725 186.859 107.758 185.667 107.758C184.475 107.758 183.508 108.725 183.508 109.917C183.508 111.109 184.475 112.075 185.667 112.075ZM209.408 109.917C209.408 111.109 208.442 112.075 207.25 112.075C206.058 112.075 205.092 111.109 205.092 109.917C205.092 108.725 206.058 107.758 207.25 107.758C208.442 107.758 209.408 108.725 209.408 109.917ZM228.833 112.075C230.025 112.075 230.992 111.109 230.992 109.917C230.992 108.725 230.025 107.758 228.833 107.758C227.641 107.758 226.675 108.725 226.675 109.917C226.675 111.109 227.641 112.075 228.833 112.075ZM252.575 109.917C252.575 111.109 251.609 112.075 250.417 112.075C249.225 112.075 248.258 111.109 248.258 109.917C248.258 108.725 249.225 107.758 250.417 107.758C251.609 107.758 252.575 108.725 252.575 109.917ZM269.842 109.917C269.842 111.104 270.813 112.075 272 112.075V107.758C270.813 107.758 269.842 108.73 269.842 109.917ZM13 129.342C14.1871 129.342 15.1583 130.313 15.1583 131.5C15.1583 132.687 14.1871 133.658 13 133.658V129.342ZM34.5833 133.658C35.7753 133.658 36.7417 132.692 36.7417 131.5C36.7417 130.308 35.7753 129.342 34.5833 129.342C33.3913 129.342 32.425 130.308 32.425 131.5C32.425 132.692 33.3913 133.658 34.5833 133.658ZM58.325 131.5C58.325 132.692 57.3587 133.658 56.1667 133.658C54.9746 133.658 54.0083 132.692 54.0083 131.5C54.0083 130.308 54.9746 129.342 56.1667 129.342C57.3587 129.342 58.325 130.308 58.325 131.5ZM77.75 133.658C78.942 133.658 79.9083 132.692 79.9083 131.5C79.9083 130.308 78.942 129.342 77.75 129.342C76.558 129.342 75.5917 130.308 75.5917 131.5C75.5917 132.692 76.558 133.658 77.75 133.658ZM101.492 131.5C101.492 132.692 100.525 133.658 99.3333 133.658C98.1413 133.658 97.175 132.692 97.175 131.5C97.175 130.308 98.1413 129.342 99.3333 129.342C100.525 129.342 101.492 130.308 101.492 131.5ZM120.917 133.658C122.109 133.658 123.075 132.692 123.075 131.5C123.075 130.308 122.109 129.342 120.917 129.342C119.725 129.342 118.758 130.308 118.758 131.5C118.758 132.692 119.725 133.658 120.917 133.658ZM144.658 131.5C144.658 132.692 143.692 133.658 142.5 133.658C141.308 133.658 140.342 132.692 140.342 131.5C140.342 130.308 141.308 129.342 142.5 129.342C143.692 129.342 144.658 130.308 144.658 131.5ZM164.083 133.658C165.275 133.658 166.242 132.692 166.242 131.5C166.242 130.308 165.275 129.342 164.083 129.342C162.891 129.342 161.925 130.308 161.925 131.5C161.925 132.692 162.891 133.658 164.083 133.658ZM187.825 131.5C187.825 132.692 186.859 133.658 185.667 133.658C184.475 133.658 183.508 132.692 183.508 131.5C183.508 130.308 184.475 129.342 185.667 129.342C186.859 129.342 187.825 130.308 187.825 131.5ZM207.25 133.658C208.442 133.658 209.408 132.692 209.408 131.5C209.408 130.308 208.442 129.342 207.25 129.342C206.058 129.342 205.092 130.308 205.092 131.5C205.092 132.692 206.058 133.658 207.25 133.658ZM230.992 131.5C230.992 132.692 230.025 133.658 228.833 133.658C227.641 133.658 226.675 132.692 226.675 131.5C226.675 130.308 227.641 129.342 228.833 129.342C230.025 129.342 230.992 130.308 230.992 131.5ZM250.417 133.658C251.609 133.658 252.575 132.692 252.575 131.5C252.575 130.308 251.609 129.342 250.417 129.342C249.225 129.342 248.258 130.308 248.258 131.5C248.258 132.692 249.225 133.658 250.417 133.658ZM272 133.658C270.813 133.658 269.842 132.687 269.842 131.5C269.842 130.313 270.813 129.342 272 129.342V133.658ZM15.1583 153.083C15.1583 151.896 14.1871 150.925 13 150.925V155.242C14.1871 155.242 15.1583 154.27 15.1583 153.083ZM36.7417 153.083C36.7417 154.275 35.7753 155.242 34.5833 155.242C33.3913 155.242 32.425 154.275 32.425 153.083C32.425 151.891 33.3913 150.925 34.5833 150.925C35.7753 150.925 36.7417 151.891 36.7417 153.083ZM56.1667 155.242C57.3587 155.242 58.325 154.275 58.325 153.083C58.325 151.891 57.3587 150.925 56.1667 150.925C54.9746 150.925 54.0083 151.891 54.0083 153.083C54.0083 154.275 54.9746 155.242 56.1667 155.242ZM79.9083 153.083C79.9083 154.275 78.942 155.242 77.75 155.242C76.558 155.242 75.5917 154.275 75.5917 153.083C75.5917 151.891 76.558 150.925 77.75 150.925C78.942 150.925 79.9083 151.891 79.9083 153.083ZM99.3333 155.242C100.525 155.242 101.492 154.275 101.492 153.083C101.492 151.891 100.525 150.925 99.3333 150.925C98.1413 150.925 97.175 151.891 97.175 153.083C97.175 154.275 98.1413 155.242 99.3333 155.242ZM123.075 153.083C123.075 154.275 122.109 155.242 120.917 155.242C119.725 155.242 118.758 154.275 118.758 153.083C118.758 151.891 119.725 150.925 120.917 150.925C122.109 150.925 123.075 151.891 123.075 153.083ZM142.5 155.242C143.692 155.242 144.658 154.275 144.658 153.083C144.658 151.891 143.692 150.925 142.5 150.925C141.308 150.925 140.342 151.891 140.342 153.083C140.342 154.275 141.308 155.242 142.5 155.242ZM166.242 153.083C166.242 154.275 165.275 155.242 164.083 155.242C162.891 155.242 161.925 154.275 161.925 153.083C161.925 151.891 162.891 150.925 164.083 150.925C165.275 150.925 166.242 151.891 166.242 153.083ZM185.667 155.242C186.859 155.242 187.825 154.275 187.825 153.083C187.825 151.891 186.859 150.925 185.667 150.925C184.475 150.925 183.508 151.891 183.508 153.083C183.508 154.275 184.475 155.242 185.667 155.242ZM209.408 153.083C209.408 154.275 208.442 155.242 207.25 155.242C206.058 155.242 205.092 154.275 205.092 153.083C205.092 151.891 206.058 150.925 207.25 150.925C208.442 150.925 209.408 151.891 209.408 153.083ZM228.833 155.242C230.025 155.242 230.992 154.275 230.992 153.083C230.992 151.891 230.025 150.925 228.833 150.925C227.641 150.925 226.675 151.891 226.675 153.083C226.675 154.275 227.641 155.242 228.833 155.242ZM252.575 153.083C252.575 154.275 251.609 155.242 250.417 155.242C249.225 155.242 248.258 154.275 248.258 153.083C248.258 151.891 249.225 150.925 250.417 150.925C251.609 150.925 252.575 151.891 252.575 153.083ZM269.842 153.083C269.842 154.27 270.813 155.242 272 155.242V150.925C270.813 150.925 269.842 151.896 269.842 153.083ZM13 172.508C14.1871 172.508 15.1583 173.48 15.1583 174.667C15.1583 175.854 14.1871 176.825 13 176.825V172.508ZM34.5833 176.825C35.7753 176.825 36.7417 175.859 36.7417 174.667C36.7417 173.475 35.7753 172.508 34.5833 172.508C33.3913 172.508 32.425 173.475 32.425 174.667C32.425 175.859 33.3913 176.825 34.5833 176.825ZM58.325 174.667C58.325 175.859 57.3587 176.825 56.1667 176.825C54.9746 176.825 54.0083 175.859 54.0083 174.667C54.0083 173.475 54.9746 172.508 56.1667 172.508C57.3587 172.508 58.325 173.475 58.325 174.667ZM77.75 176.825C78.942 176.825 79.9083 175.859 79.9083 174.667C79.9083 173.475 78.942 172.508 77.75 172.508C76.558 172.508 75.5917 173.475 75.5917 174.667C75.5917 175.859 76.558 176.825 77.75 176.825ZM101.492 174.667C101.492 175.859 100.525 176.825 99.3333 176.825C98.1413 176.825 97.175 175.859 97.175 174.667C97.175 173.475 98.1413 172.508 99.3333 172.508C100.525 172.508 101.492 173.475 101.492 174.667ZM120.917 176.825C122.109 176.825 123.075 175.859 123.075 174.667C123.075 173.475 122.109 172.508 120.917 172.508C119.725 172.508 118.758 173.475 118.758 174.667C118.758 175.859 119.725 176.825 120.917 176.825ZM144.658 174.667C144.658 175.859 143.692 176.825 142.5 176.825C141.308 176.825 140.342 175.859 140.342 174.667C140.342 173.475 141.308 172.508 142.5 172.508C143.692 172.508 144.658 173.475 144.658 174.667ZM164.083 176.825C165.275 176.825 166.242 175.859 166.242 174.667C166.242 173.475 165.275 172.508 164.083 172.508C162.891 172.508 161.925 173.475 161.925 174.667C161.925 175.859 162.891 176.825 164.083 176.825ZM187.825 174.667C187.825 175.859 186.859 176.825 185.667 176.825C184.475 176.825 183.508 175.859 183.508 174.667C183.508 173.475 184.475 172.508 185.667 172.508C186.859 172.508 187.825 173.475 187.825 174.667ZM207.25 176.825C208.442 176.825 209.408 175.859 209.408 174.667C209.408 173.475 208.442 172.508 207.25 172.508C206.058 172.508 205.092 173.475 205.092 174.667C205.092 175.859 206.058 176.825 207.25 176.825ZM230.992 174.667C230.992 175.859 230.025 176.825 228.833 176.825C227.641 176.825 226.675 175.859 226.675 174.667C226.675 173.475 227.641 172.508 228.833 172.508C230.025 172.508 230.992 173.475 230.992 174.667ZM250.417 176.825C251.609 176.825 252.575 175.859 252.575 174.667C252.575 173.475 251.609 172.508 250.417 172.508C249.225 172.508 248.258 173.475 248.258 174.667C248.258 175.859 249.225 176.825 250.417 176.825ZM272 176.825C270.813 176.825 269.842 175.854 269.842 174.667C269.842 173.48 270.813 172.508 272 172.508V176.825ZM15.1583 196.25C15.1583 195.063 14.1871 194.092 13 194.092V198.408C14.1871 198.408 15.1583 197.437 15.1583 196.25ZM36.7417 196.25C36.7417 197.442 35.7753 198.408 34.5833 198.408C33.3913 198.408 32.425 197.442 32.425 196.25C32.425 195.058 33.3913 194.092 34.5833 194.092C35.7753 194.092 36.7417 195.058 36.7417 196.25ZM56.1667 198.408C57.3587 198.408 58.325 197.442 58.325 196.25C58.325 195.058 57.3587 194.092 56.1667 194.092C54.9746 194.092 54.0083 195.058 54.0083 196.25C54.0083 197.442 54.9746 198.408 56.1667 198.408ZM79.9083 196.25C79.9083 197.442 78.942 198.408 77.75 198.408C76.558 198.408 75.5917 197.442 75.5917 196.25C75.5917 195.058 76.558 194.092 77.75 194.092C78.942 194.092 79.9083 195.058 79.9083 196.25ZM99.3333 198.408C100.525 198.408 101.492 197.442 101.492 196.25C101.492 195.058 100.525 194.092 99.3333 194.092C98.1413 194.092 97.175 195.058 97.175 196.25C97.175 197.442 98.1413 198.408 99.3333 198.408ZM123.075 196.25C123.075 197.442 122.109 198.408 120.917 198.408C119.725 198.408 118.758 197.442 118.758 196.25C118.758 195.058 119.725 194.092 120.917 194.092C122.109 194.092 123.075 195.058 123.075 196.25ZM142.5 198.408C143.692 198.408 144.658 197.442 144.658 196.25C144.658 195.058 143.692 194.092 142.5 194.092C141.308 194.092 140.342 195.058 140.342 196.25C140.342 197.442 141.308 198.408 142.5 198.408ZM166.242 196.25C166.242 197.442 165.275 198.408 164.083 198.408C162.891 198.408 161.925 197.442 161.925 196.25C161.925 195.058 162.891 194.092 164.083 194.092C165.275 194.092 166.242 195.058 166.242 196.25ZM185.667 198.408C186.859 198.408 187.825 197.442 187.825 196.25C187.825 195.058 186.859 194.092 185.667 194.092C184.475 194.092 183.508 195.058 183.508 196.25C183.508 197.442 184.475 198.408 185.667 198.408ZM209.408 196.25C209.408 197.442 208.442 198.408 207.25 198.408C206.058 198.408 205.092 197.442 205.092 196.25C205.092 195.058 206.058 194.092 207.25 194.092C208.442 194.092 209.408 195.058 209.408 196.25ZM228.833 198.408C230.025 198.408 230.992 197.442 230.992 196.25C230.992 195.058 230.025 194.092 228.833 194.092C227.641 194.092 226.675 195.058 226.675 196.25C226.675 197.442 227.641 198.408 228.833 198.408ZM252.575 196.25C252.575 197.442 251.609 198.408 250.417 198.408C249.225 198.408 248.258 197.442 248.258 196.25C248.258 195.058 249.225 194.092 250.417 194.092C251.609 194.092 252.575 195.058 252.575 196.25ZM269.842 196.25C269.842 197.437 270.813 198.408 272 198.408V194.092C270.813 194.092 269.842 195.063 269.842 196.25ZM13 215.675C14.1871 215.675 15.1583 216.646 15.1583 217.833C15.1583 219.02 14.1871 219.992 13 219.992V215.675ZM34.5833 219.992C35.7753 219.992 36.7417 219.025 36.7417 217.833C36.7417 216.641 35.7753 215.675 34.5833 215.675C33.3913 215.675 32.425 216.641 32.425 217.833C32.425 219.025 33.3913 219.992 34.5833 219.992ZM58.325 217.833C58.325 219.025 57.3587 219.992 56.1667 219.992C54.9746 219.992 54.0083 219.025 54.0083 217.833C54.0083 216.641 54.9746 215.675 56.1667 215.675C57.3587 215.675 58.325 216.641 58.325 217.833ZM77.75 219.992C78.942 219.992 79.9083 219.025 79.9083 217.833C79.9083 216.641 78.942 215.675 77.75 215.675C76.558 215.675 75.5917 216.641 75.5917 217.833C75.5917 219.025 76.558 219.992 77.75 219.992ZM101.492 217.833C101.492 219.025 100.525 219.992 99.3333 219.992C98.1413 219.992 97.175 219.025 97.175 217.833C97.175 216.641 98.1413 215.675 99.3333 215.675C100.525 215.675 101.492 216.641 101.492 217.833ZM120.917 219.992C122.109 219.992 123.075 219.025 123.075 217.833C123.075 216.641 122.109 215.675 120.917 215.675C119.725 215.675 118.758 216.641 118.758 217.833C118.758 219.025 119.725 219.992 120.917 219.992ZM144.658 217.833C144.658 219.025 143.692 219.992 142.5 219.992C141.308 219.992 140.342 219.025 140.342 217.833C140.342 216.641 141.308 215.675 142.5 215.675C143.692 215.675 144.658 216.641 144.658 217.833ZM164.083 219.992C165.275 219.992 166.242 219.025 166.242 217.833C166.242 216.641 165.275 215.675 164.083 215.675C162.891 215.675 161.925 216.641 161.925 217.833C161.925 219.025 162.891 219.992 164.083 219.992ZM187.825 217.833C187.825 219.025 186.859 219.992 185.667 219.992C184.475 219.992 183.508 219.025 183.508 217.833C183.508 216.641 184.475 215.675 185.667 215.675C186.859 215.675 187.825 216.641 187.825 217.833ZM207.25 219.992C208.442 219.992 209.408 219.025 209.408 217.833C209.408 216.641 208.442 215.675 207.25 215.675C206.058 215.675 205.092 216.641 205.092 217.833C205.092 219.025 206.058 219.992 207.25 219.992ZM230.992 217.833C230.992 219.025 230.025 219.992 228.833 219.992C227.641 219.992 226.675 219.025 226.675 217.833C226.675 216.641 227.641 215.675 228.833 215.675C230.025 215.675 230.992 216.641 230.992 217.833ZM250.417 219.992C251.609 219.992 252.575 219.025 252.575 217.833C252.575 216.641 251.609 215.675 250.417 215.675C249.225 215.675 248.258 216.641 248.258 217.833C248.258 219.025 249.225 219.992 250.417 219.992ZM272 219.992C270.813 219.992 269.842 219.02 269.842 217.833C269.842 216.646 270.813 215.675 272 215.675V219.992ZM15.1583 239.417C15.1583 238.23 14.1871 237.258 13 237.258V241.575C14.1871 241.575 15.1583 240.604 15.1583 239.417ZM36.7417 239.417C36.7417 240.609 35.7753 241.575 34.5833 241.575C33.3913 241.575 32.425 240.609 32.425 239.417C32.425 238.225 33.3913 237.258 34.5833 237.258C35.7753 237.258 36.7417 238.225 36.7417 239.417ZM56.1667 241.575C57.3587 241.575 58.325 240.609 58.325 239.417C58.325 238.225 57.3587 237.258 56.1667 237.258C54.9746 237.258 54.0083 238.225 54.0083 239.417C54.0083 240.609 54.9746 241.575 56.1667 241.575ZM79.9083 239.417C79.9083 240.609 78.942 241.575 77.75 241.575C76.558 241.575 75.5917 240.609 75.5917 239.417C75.5917 238.225 76.558 237.258 77.75 237.258C78.942 237.258 79.9083 238.225 79.9083 239.417ZM99.3333 241.575C100.525 241.575 101.492 240.609 101.492 239.417C101.492 238.225 100.525 237.258 99.3333 237.258C98.1413 237.258 97.175 238.225 97.175 239.417C97.175 240.609 98.1413 241.575 99.3333 241.575ZM123.075 239.417C123.075 240.609 122.109 241.575 120.917 241.575C119.725 241.575 118.758 240.609 118.758 239.417C118.758 238.225 119.725 237.258 120.917 237.258C122.109 237.258 123.075 238.225 123.075 239.417ZM142.5 241.575C143.692 241.575 144.658 240.609 144.658 239.417C144.658 238.225 143.692 237.258 142.5 237.258C141.308 237.258 140.342 238.225 140.342 239.417C140.342 240.609 141.308 241.575 142.5 241.575ZM166.242 239.417C166.242 240.609 165.275 241.575 164.083 241.575C162.891 241.575 161.925 240.609 161.925 239.417C161.925 238.225 162.891 237.258 164.083 237.258C165.275 237.258 166.242 238.225 166.242 239.417ZM185.667 241.575C186.859 241.575 187.825 240.609 187.825 239.417C187.825 238.225 186.859 237.258 185.667 237.258C184.475 237.258 183.508 238.225 183.508 239.417C183.508 240.609 184.475 241.575 185.667 241.575ZM209.408 239.417C209.408 240.609 208.442 241.575 207.25 241.575C206.058 241.575 205.092 240.609 205.092 239.417C205.092 238.225 206.058 237.258 207.25 237.258C208.442 237.258 209.408 238.225 209.408 239.417ZM228.833 241.575C230.025 241.575 230.992 240.609 230.992 239.417C230.992 238.225 230.025 237.258 228.833 237.258C227.641 237.258 226.675 238.225 226.675 239.417C226.675 240.609 227.641 241.575 228.833 241.575ZM252.575 239.417C252.575 240.609 251.609 241.575 250.417 241.575C249.225 241.575 248.258 240.609 248.258 239.417C248.258 238.225 249.225 237.258 250.417 237.258C251.609 237.258 252.575 238.225 252.575 239.417ZM269.842 239.417C269.842 240.604 270.813 241.575 272 241.575V237.258C270.813 237.258 269.842 238.23 269.842 239.417ZM13 261V258.842C14.1871 258.842 15.1583 259.813 15.1583 261H13ZM34.5833 258.842C33.3962 258.842 32.425 259.813 32.425 261H36.7417C36.7417 259.813 35.7704 258.842 34.5833 258.842ZM54.0083 261C54.0083 259.813 54.9796 258.842 56.1667 258.842C57.3537 258.842 58.325 259.813 58.325 261H54.0083ZM77.75 258.842C76.5629 258.842 75.5917 259.813 75.5917 261H79.9083C79.9083 259.813 78.9371 258.842 77.75 258.842ZM97.175 261C97.175 259.813 98.1462 258.842 99.3333 258.842C100.52 258.842 101.492 259.813 101.492 261H97.175ZM120.917 258.842C119.73 258.842 118.758 259.813 118.758 261H123.075C123.075 259.813 122.104 258.842 120.917 258.842ZM140.342 261C140.342 259.813 141.313 258.842 142.5 258.842C143.687 258.842 144.658 259.813 144.658 261H140.342ZM164.083 258.842C162.896 258.842 161.925 259.813 161.925 261H166.242C166.242 259.813 165.27 258.842 164.083 258.842ZM183.508 261C183.508 259.813 184.48 258.842 185.667 258.842C186.854 258.842 187.825 259.813 187.825 261H183.508ZM207.25 258.842C206.063 258.842 205.092 259.813 205.092 261H209.408C209.408 259.813 208.437 258.842 207.25 258.842ZM226.675 261C226.675 259.813 227.646 258.842 228.833 258.842C230.02 258.842 230.992 259.813 230.992 261H226.675ZM250.417 258.842C249.23 258.842 248.258 259.813 248.258 261H252.575C252.575 259.813 251.604 258.842 250.417 258.842ZM269.842 261C269.842 259.813 270.813 258.842 272 258.842V261H269.842Z" fill="#E7A98A"/>
</g>
</svg>
