<svg width="41" height="52" viewBox="0 0 41 52" fill="none" xmlns="http://www.w3.org/2000/svg">
<path d="M19.4102 33.3125C18.9615 33.3125 18.5977 33.6763 18.5977 34.125C18.5977 34.5737 18.9615 34.9375 19.4102 34.9375H19.4106H21.6886C22.1373 34.9375 22.5011 34.5737 22.5011 34.125C22.5011 33.6763 22.1373 33.3125 21.6886 33.3125H19.4106H19.4102Z" fill="#55BC7E"/>
<path d="M31.6875 28.4375H21.125V24.9179C23.3443 24.7338 25.5126 23.7996 27.2069 22.1057C27.5242 21.7883 27.5242 21.2742 27.2069 20.9568C26.8895 20.6394 26.3753 20.6394 26.0579 20.9568C22.8897 24.1247 17.735 24.1247 14.5675 20.9568C14.2501 20.6394 13.7359 20.6394 13.4186 20.9568C13.1012 21.2742 13.1012 21.7883 13.4186 22.1057C15.1129 23.8004 17.2806 24.734 19.5 24.9179V28.4375H8.9375C8.4888 28.4375 8.125 28.8013 8.125 29.25V34.125C8.125 34.5737 8.4888 34.9375 8.9375 34.9375H10.6709L13.0198 51.303C13.077 51.7029 13.4197 52 13.824 52H26.8014C27.2057 52 27.5484 51.7029 27.6056 51.303L29.9542 34.9375H31.6875C32.1362 34.9375 32.5 34.5737 32.5 34.125C32.2675 30.49 33.0899 28.4375 31.6875 28.4375ZM30.875 33.3125H29.25H26.0004H26C25.5513 33.3125 25.1875 33.6763 25.1875 34.125C25.1875 35.4145 27.008 34.7856 28.3125 34.9375L26.0972 50.375H14.5282L12.3125 34.9375H14.5949H14.5952C15.0439 34.9375 15.4077 34.5737 15.4077 34.125C15.4077 33.6763 15.0439 33.3125 14.5952 33.3125H14.5949H11.375H9.75V30.0625H30.875V33.3125Z" fill="#55BC7E"/>
<path d="M39.8128 14.625C30.3866 14.625 27.5079 26 30.0628 26C35.8871 26 40.6253 21.2619 40.6253 15.4375C40.6253 14.9888 40.2615 14.625 39.8128 14.625ZM30.9157 24.3345C31.3196 20.0856 34.7108 16.6943 38.9598 16.2905C38.5559 20.5394 35.1647 23.9307 30.9157 24.3345Z" fill="#55BC7E"/>
<path d="M11.375 25.1875C11.375 19.3631 6.63687 14.625 0.8125 14.625C0.3638 14.625 0 14.9888 0 15.4375C0 21.2619 4.73813 26 10.5625 26C11.0112 26 11.375 25.6362 11.375 25.1875ZM1.66547 16.2905C5.91443 16.6943 9.30567 20.0856 9.70954 24.3345C5.46057 23.9307 2.06934 20.5394 1.66547 16.2905Z" fill="#55BC7E"/>
<path d="M20.3125 19.5C25.6886 19.5 30.0625 15.1261 30.0625 9.75C30.0625 4.37393 25.6886 0 20.3125 0C14.9364 0 10.5625 4.37393 10.5625 9.75C10.5625 15.1261 14.9364 19.5 20.3125 19.5ZM20.3125 1.625C24.7928 1.625 28.4375 5.26975 28.4375 9.75C28.4375 14.2303 24.7928 17.875 20.3125 17.875C15.8322 17.875 12.1875 14.2303 12.1875 9.75C12.1875 5.26975 15.8322 1.625 20.3125 1.625Z" fill="#55BC7E"/>
<path d="M17.875 12.1939H16.25C16.25 13.7223 17.6243 14.9592 19.5 15.2398V16.25H21.125V15.2398C23.0007 14.9592 24.375 13.7223 24.375 12.1939C24.375 10.6654 23.0007 9.4288 21.125 9.14831V6.22184C22.05 6.43563 22.75 6.98847 22.75 7.60568H24.375C24.375 6.07719 23.0007 4.84063 21.125 4.56015V3.25H19.5V4.56015C17.6243 4.84063 16.25 6.07719 16.25 7.60568C16.25 9.13418 17.6243 10.3711 19.5 10.6516V13.5781C18.575 13.3643 17.875 12.8114 17.875 12.1939ZM22.75 12.1939C22.75 12.8114 22.05 13.3643 21.125 13.5781V10.81C22.05 11.0238 22.75 11.5766 22.75 12.1939ZM17.875 7.60568C17.875 6.98847 18.575 6.43563 19.5 6.22184V8.98992C18.575 8.77608 17.875 8.22319 17.875 7.60568Z" fill="#55BC7E"/>
</svg>
