<?xml version="1.0" encoding="UTF-8"?>
<!DOCTYPE svg PUBLIC "-//W3C//DTD SVG 1.1//EN" "http://www.w3.org/Graphics/SVG/1.1/DTD/svg11.dtd">
<!-- Creator: CorelDRAW 2019 (64-Bit) -->
<svg xmlns="http://www.w3.org/2000/svg" xml:space="preserve" width="2.44428in" height="2.35539in" version="1.1" style="shape-rendering:geometricPrecision; text-rendering:geometricPrecision; image-rendering:optimizeQuality; fill-rule:evenodd; clip-rule:evenodd"
viewBox="0 0 2444.28 2355.39"
 xmlns:xlink="http://www.w3.org/1999/xlink"
 xmlns:xodm="http://www.corel.com/coreldraw/odm/2003">
 <defs>
  <style type="text/css">
   <![CDATA[
    .fil1 {fill:none}
    .fil0 {fill:white}
   ]]>
  </style>
   <clipPath id="id0">
    <path d="M705.04 0c960.56,0 1739.24,778.69 1739.24,1739.24 0,216.98 -39.85,424.61 -112.43,616.15l-2220.74 0 -111.11 0 0 -2206.5c215.51,-95.68 454.06,-148.89 705.04,-148.89z"/>
   </clipPath>
 </defs>
 <g id="Layer_x0020_1">
  <metadata id="CorelCorpID_0Corel-Layer"/>
  <g>
  </g>
  <g style="clip-path:url(#id0)">
   <g>
    <path id="Union_8" class="fil0" d="M-1175.27 -236.42l-31.32 0 0 31.25c17.23,0 31.32,-14.06 31.32,-31.25zm281.89 31.25c17.22,0 31.32,-14.06 31.32,-31.25l-62.65 0c0,17.19 14.09,31.25 31.32,31.25zm344.53 -31.25c0,17.19 -14.09,31.25 -31.32,31.25 -17.23,0 -31.32,-14.06 -31.32,-31.25l62.64 0zm281.89 31.25c17.23,0 31.32,-14.06 31.32,-31.25l-62.64 0c0,17.19 14.1,31.25 31.31,31.25zm344.54 -31.25c0,17.19 -14.09,31.25 -31.32,31.25 -17.23,0 -31.32,-14.06 -31.32,-31.25l62.65 0zm281.89 31.25c17.23,0 31.32,-14.06 31.32,-31.25l-62.65 0c0,17.19 14.09,31.25 31.32,31.25zm344.53 -31.25c0,17.19 -14.09,31.25 -31.31,31.25 -17.23,0 -31.32,-14.06 -31.32,-31.25l62.64 0zm281.89 31.25c17.23,0 31.32,-14.06 31.32,-31.25l-62.65 0c0,17.19 14.09,31.25 31.32,31.25zm344.53 -31.25c0,17.19 -14.09,31.25 -31.32,31.25 -17.22,0 -31.31,-14.06 -31.31,-31.25l62.63 0zm281.9 31.25c17.23,0 31.32,-14.06 31.32,-31.25l-62.65 0c0,17.19 14.09,31.25 31.32,31.25zm344.53 -31.25c0,17.19 -14.09,31.25 -31.32,31.25 -17.23,0 -31.32,-14.06 -31.32,-31.25l62.65 0zm281.89 31.25c17.22,0 31.31,-14.06 31.31,-31.25l-62.64 0c0,17.19 14.09,31.25 31.32,31.25zm313.21 -31.25l0 31.25c-17.23,0 -31.32,-14.06 -31.32,-31.25l31.32 0zm-3727.22 313.13c0,-17.19 -14.09,-31.25 -31.32,-31.25l0 62.61c17.23,0 31.32,-14.06 31.32,-31.35zm313.21 0c0,17.29 -14.02,31.35 -31.32,31.35 -17.3,0 -31.32,-14.06 -31.32,-31.35 0,-17.29 14.02,-31.25 31.32,-31.25 17.3,0 31.32,13.96 31.32,31.25zm281.89 31.35c17.3,0 31.32,-14.06 31.32,-31.35 0,-17.29 -14.02,-31.25 -31.32,-31.25 -17.3,0 -31.32,13.96 -31.32,31.25 0,17.29 14.02,31.35 31.32,31.35zm344.53 -31.35c0,17.29 -14.02,31.35 -31.32,31.35 -17.29,0 -31.31,-14.06 -31.31,-31.35 0,-17.29 14.02,-31.25 31.31,-31.25 17.3,0 31.32,13.96 31.32,31.25zm281.9 31.35c17.29,0 31.32,-14.06 31.32,-31.35 0,-17.29 -14.03,-31.25 -31.32,-31.25 -17.3,0 -31.32,13.96 -31.32,31.25 0,17.29 14.02,31.35 31.32,31.35zm344.53 -31.35c0,17.29 -14.02,31.35 -31.32,31.35 -17.29,0 -31.32,-14.06 -31.32,-31.35 0,-17.29 14.03,-31.25 31.32,-31.25 17.3,0 31.32,13.96 31.32,31.25zm281.89 31.35c17.3,0 31.31,-14.06 31.31,-31.35 0,-17.29 -14.02,-31.25 -31.31,-31.25 -17.3,0 -31.32,13.96 -31.32,31.25 0,17.29 14.02,31.35 31.32,31.35zm344.53 -31.35c0,17.29 -14.02,31.35 -31.32,31.35 -17.3,0 -31.32,-14.06 -31.32,-31.35 0,-17.29 14.02,-31.25 31.32,-31.25 17.3,0 31.32,13.96 31.32,31.25zm281.89 31.35c17.3,0 31.32,-14.06 31.32,-31.35 0,-17.29 -14.02,-31.25 -31.32,-31.25 -17.29,0 -31.31,13.96 -31.31,31.25 0,17.29 14.02,31.35 31.31,31.35zm344.54 -31.35c0,17.29 -14.03,31.35 -31.32,31.35 -17.3,0 -31.32,-14.06 -31.32,-31.35 0,-17.29 14.02,-31.25 31.32,-31.25 17.29,0 31.32,13.96 31.32,31.25zm281.89 31.35c17.3,0 31.32,-14.06 31.32,-31.35 0,-17.29 -14.02,-31.25 -31.32,-31.25 -17.29,0 -31.32,13.96 -31.32,31.25 0,17.29 14.03,31.35 31.32,31.35zm344.53 -31.35c0,17.29 -14.02,31.35 -31.31,31.35 -17.3,0 -31.32,-14.06 -31.32,-31.35 0,-17.29 14.02,-31.25 31.32,-31.25 17.29,0 31.31,13.96 31.31,31.25zm250.57 0c0,17.29 14.09,31.35 31.32,31.35l0 -62.61c-17.23,0 -31.32,14.06 -31.32,31.25zm-3727.22 281.98c17.23,0 31.32,14.06 31.32,31.25 0,17.29 -14.09,31.35 -31.32,31.35l0 -62.61zm313.21 62.61c17.3,0 31.32,-14.06 31.32,-31.35 0,-17.29 -14.02,-31.25 -31.32,-31.25 -17.3,0 -31.32,13.96 -31.32,31.25 0,17.29 14.02,31.35 31.32,31.35zm344.53 -31.35c0,17.29 -14.02,31.35 -31.32,31.35 -17.3,0 -31.32,-14.06 -31.32,-31.35 0,-17.29 14.02,-31.25 31.32,-31.25 17.3,0 31.32,13.96 31.32,31.25zm281.89 31.35c17.3,0 31.32,-14.06 31.32,-31.35 0,-17.29 -14.02,-31.25 -31.32,-31.25 -17.29,0 -31.31,13.96 -31.31,31.25 0,17.29 14.02,31.35 31.31,31.35zm344.54 -31.35c0,17.29 -14.03,31.35 -31.32,31.35 -17.3,0 -31.32,-14.06 -31.32,-31.35 0,-17.29 14.02,-31.25 31.32,-31.25 17.29,0 31.32,13.96 31.32,31.25zm281.89 31.35c17.3,0 31.32,-14.06 31.32,-31.35 0,-17.29 -14.02,-31.25 -31.32,-31.25 -17.29,0 -31.32,13.96 -31.32,31.25 0,17.29 14.03,31.35 31.32,31.35zm344.53 -31.35c0,17.29 -14.02,31.35 -31.31,31.35 -17.3,0 -31.32,-14.06 -31.32,-31.35 0,-17.29 14.02,-31.25 31.32,-31.25 17.3,0 31.31,13.96 31.31,31.25zm281.89 31.35c17.3,0 31.32,-14.06 31.32,-31.35 0,-17.29 -14.02,-31.25 -31.32,-31.25 -17.3,0 -31.32,13.96 -31.32,31.25 0,17.29 14.02,31.35 31.32,31.35zm344.53 -31.35c0,17.29 -14.02,31.35 -31.32,31.35 -17.29,0 -31.31,-14.06 -31.31,-31.35 0,-17.29 14.02,-31.25 31.31,-31.25 17.3,0 31.32,13.96 31.32,31.25zm281.9 31.35c17.29,0 31.32,-14.06 31.32,-31.35 0,-17.29 -14.03,-31.25 -31.32,-31.25 -17.3,0 -31.32,13.96 -31.32,31.25 0,17.29 14.02,31.35 31.32,31.35zm344.53 -31.35c0,17.29 -14.02,31.35 -31.32,31.35 -17.29,0 -31.32,-14.06 -31.32,-31.35 0,-17.29 14.03,-31.25 31.32,-31.25 17.3,0 31.32,13.96 31.32,31.25zm281.89 31.35c17.29,0 31.31,-14.06 31.31,-31.35 0,-17.29 -14.02,-31.25 -31.31,-31.25 -17.3,0 -31.32,13.96 -31.32,31.25 0,17.29 14.02,31.35 31.32,31.35zm313.21 0c-17.23,0 -31.32,-14.06 -31.32,-31.35 0,-17.19 14.09,-31.25 31.32,-31.25l0 62.61zm-3727.22 281.87c0,-17.19 -14.09,-31.35 -31.32,-31.35l0 62.71c17.23,0 31.32,-14.06 31.32,-31.35zm313.21 0c0,17.29 -14.02,31.35 -31.32,31.35 -17.3,0 -31.32,-14.06 -31.32,-31.35 0,-17.29 14.02,-31.35 31.32,-31.35 17.3,0 31.32,14.06 31.32,31.35zm281.89 31.35c17.3,0 31.32,-14.06 31.32,-31.35 0,-17.29 -14.02,-31.35 -31.32,-31.35 -17.3,0 -31.32,14.06 -31.32,31.35 0,17.29 14.02,31.35 31.32,31.35zm344.53 -31.35c0,17.29 -14.02,31.35 -31.32,31.35 -17.29,0 -31.31,-14.06 -31.31,-31.35 0,-17.29 14.02,-31.35 31.31,-31.35 17.3,0 31.32,14.06 31.32,31.35zm281.9 31.35c17.29,0 31.32,-14.06 31.32,-31.35 0,-17.29 -14.03,-31.35 -31.32,-31.35 -17.3,0 -31.32,14.06 -31.32,31.35 0,17.29 14.02,31.35 31.32,31.35zm344.53 -31.35c0,17.29 -14.02,31.35 -31.32,31.35 -17.29,0 -31.32,-14.06 -31.32,-31.35 0,-17.29 14.03,-31.35 31.32,-31.35 17.3,0 31.32,14.06 31.32,31.35zm281.89 31.35c17.3,0 31.31,-14.06 31.31,-31.35 0,-17.29 -14.02,-31.35 -31.31,-31.35 -17.3,0 -31.32,14.06 -31.32,31.35 0,17.29 14.02,31.35 31.32,31.35zm344.53 -31.35c0,17.29 -14.02,31.35 -31.32,31.35 -17.3,0 -31.32,-14.06 -31.32,-31.35 0,-17.29 14.02,-31.35 31.32,-31.35 17.3,0 31.32,14.06 31.32,31.35zm281.89 31.35c17.3,0 31.32,-14.06 31.32,-31.35 0,-17.29 -14.02,-31.35 -31.32,-31.35 -17.29,0 -31.31,14.06 -31.31,31.35 0,17.29 14.02,31.35 31.31,31.35zm344.54 -31.35c0,17.29 -14.03,31.35 -31.32,31.35 -17.3,0 -31.32,-14.06 -31.32,-31.35 0,-17.29 14.02,-31.35 31.32,-31.35 17.29,0 31.32,14.06 31.32,31.35zm281.89 31.35c17.3,0 31.32,-14.06 31.32,-31.35 0,-17.29 -14.02,-31.35 -31.32,-31.35 -17.29,0 -31.32,14.06 -31.32,31.35 0,17.29 14.03,31.35 31.32,31.35zm344.53 -31.35c0,17.29 -14.02,31.35 -31.31,31.35 -17.3,0 -31.32,-14.06 -31.32,-31.35 0,-17.29 14.02,-31.35 31.32,-31.35 17.29,0 31.31,14.06 31.31,31.35zm250.57 0c0,17.29 14.09,31.35 31.32,31.35l0 -62.71c-17.23,0 -31.32,14.17 -31.32,31.35zm-3727.22 281.87c17.23,0 31.32,14.17 31.32,31.35 0,17.19 -14.09,31.35 -31.32,31.35l0 -62.71zm313.21 62.71c17.3,0 31.32,-14.06 31.32,-31.35 0,-17.29 -14.02,-31.35 -31.32,-31.35 -17.3,0 -31.32,14.06 -31.32,31.35 0,17.29 14.02,31.35 31.32,31.35zm344.53 -31.35c0,17.29 -14.02,31.35 -31.32,31.35 -17.3,0 -31.32,-14.06 -31.32,-31.35 0,-17.29 14.02,-31.35 31.32,-31.35 17.3,0 31.32,14.06 31.32,31.35zm281.89 31.35c17.3,0 31.32,-14.06 31.32,-31.35 0,-17.29 -14.02,-31.35 -31.32,-31.35 -17.29,0 -31.31,14.06 -31.31,31.35 0,17.29 14.02,31.35 31.31,31.35zm344.54 -31.35c0,17.29 -14.03,31.35 -31.32,31.35 -17.3,0 -31.32,-14.06 -31.32,-31.35 0,-17.29 14.02,-31.35 31.32,-31.35 17.29,0 31.32,14.06 31.32,31.35zm281.89 31.35c17.3,0 31.32,-14.06 31.32,-31.35 0,-17.29 -14.02,-31.35 -31.32,-31.35 -17.29,0 -31.32,14.06 -31.32,31.35 0,17.29 14.03,31.35 31.32,31.35zm344.53 -31.35c0,17.29 -14.02,31.35 -31.31,31.35 -17.3,0 -31.32,-14.06 -31.32,-31.35 0,-17.29 14.02,-31.35 31.32,-31.35 17.3,0 31.31,14.06 31.31,31.35zm281.89 31.35c17.3,0 31.32,-14.06 31.32,-31.35 0,-17.29 -14.02,-31.35 -31.32,-31.35 -17.3,0 -31.32,14.06 -31.32,31.35 0,17.29 14.02,31.35 31.32,31.35zm344.53 -31.35c0,17.29 -14.02,31.35 -31.32,31.35 -17.29,0 -31.31,-14.06 -31.31,-31.35 0,-17.29 14.02,-31.35 31.31,-31.35 17.3,0 31.32,14.06 31.32,31.35zm281.9 31.35c17.29,0 31.32,-14.06 31.32,-31.35 0,-17.29 -14.03,-31.35 -31.32,-31.35 -17.3,0 -31.32,14.06 -31.32,31.35 0,17.29 14.02,31.35 31.32,31.35zm344.53 -31.35c0,17.29 -14.02,31.35 -31.32,31.35 -17.29,0 -31.32,-14.06 -31.32,-31.35 0,-17.29 14.03,-31.35 31.32,-31.35 17.3,0 31.32,14.06 31.32,31.35zm281.89 31.35c17.29,0 31.31,-14.06 31.31,-31.35 0,-17.29 -14.02,-31.35 -31.31,-31.35 -17.3,0 -31.32,14.06 -31.32,31.35 0,17.29 14.02,31.35 31.32,31.35zm313.21 0c-17.23,0 -31.32,-14.17 -31.32,-31.35 0,-17.19 14.09,-31.35 31.32,-31.35l0 62.71zm-3727.22 281.87c0,-17.29 -14.09,-31.35 -31.32,-31.35l0 62.6c17.23,0 31.32,-14.06 31.32,-31.25zm313.21 0c0,17.3 -14.02,31.25 -31.32,31.25 -17.3,0 -31.32,-13.96 -31.32,-31.25 0,-17.29 14.02,-31.35 31.32,-31.35 17.3,0 31.32,14.06 31.32,31.35zm281.89 31.25c17.3,0 31.32,-13.96 31.32,-31.25 0,-17.29 -14.02,-31.35 -31.32,-31.35 -17.3,0 -31.32,14.06 -31.32,31.35 0,17.3 14.02,31.25 31.32,31.25zm344.53 -31.25c0,17.3 -14.02,31.25 -31.32,31.25 -17.29,0 -31.31,-13.96 -31.31,-31.25 0,-17.29 14.02,-31.35 31.31,-31.35 17.3,0 31.32,14.06 31.32,31.35zm281.9 31.25c17.29,0 31.32,-13.96 31.32,-31.25 0,-17.29 -14.03,-31.35 -31.32,-31.35 -17.3,0 -31.32,14.06 -31.32,31.35 0,17.3 14.02,31.25 31.32,31.25zm344.53 -31.25c0,17.3 -14.02,31.25 -31.32,31.25 -17.29,0 -31.32,-13.96 -31.32,-31.25 0,-17.29 14.03,-31.35 31.32,-31.35 17.3,0 31.32,14.06 31.32,31.35zm281.89 31.25c17.3,0 31.31,-13.96 31.31,-31.25 0,-17.29 -14.02,-31.35 -31.31,-31.35 -17.3,0 -31.32,14.06 -31.32,31.35 0,17.3 14.02,31.25 31.32,31.25zm344.53 -31.25c0,17.3 -14.02,31.25 -31.32,31.25 -17.3,0 -31.32,-13.96 -31.32,-31.25 0,-17.29 14.02,-31.35 31.32,-31.35 17.3,0 31.32,14.06 31.32,31.35zm281.89 31.25c17.3,0 31.32,-13.96 31.32,-31.25 0,-17.29 -14.02,-31.35 -31.32,-31.35 -17.29,0 -31.31,14.06 -31.31,31.35 0,17.3 14.02,31.25 31.31,31.25zm344.54 -31.25c0,17.3 -14.03,31.25 -31.32,31.25 -17.3,0 -31.32,-13.96 -31.32,-31.25 0,-17.29 14.02,-31.35 31.32,-31.35 17.29,0 31.32,14.06 31.32,31.35zm281.89 31.25c17.3,0 31.32,-13.96 31.32,-31.25 0,-17.29 -14.02,-31.35 -31.32,-31.35 -17.29,0 -31.32,14.06 -31.32,31.35 0,17.3 14.03,31.25 31.32,31.25zm344.53 -31.25c0,17.3 -14.02,31.25 -31.31,31.25 -17.3,0 -31.32,-13.96 -31.32,-31.25 0,-17.29 14.02,-31.35 31.32,-31.35 17.29,0 31.31,14.06 31.31,31.35zm250.57 0c0,17.19 14.09,31.25 31.32,31.25l0 -62.6c-17.23,0 -31.32,14.06 -31.32,31.35zm-3727.22 281.88c17.23,0 31.32,14.06 31.32,31.35 0,17.19 -14.09,31.25 -31.32,31.25l0 -62.6zm313.21 62.6c17.3,0 31.32,-13.96 31.32,-31.25 0,-17.29 -14.02,-31.35 -31.32,-31.35 -17.3,0 -31.32,14.06 -31.32,31.35 0,17.29 14.02,31.25 31.32,31.25zm344.53 -31.25c0,17.29 -14.02,31.25 -31.32,31.25 -17.3,0 -31.32,-13.96 -31.32,-31.25 0,-17.29 14.02,-31.35 31.32,-31.35 17.3,0 31.32,14.06 31.32,31.35zm281.89 31.25c17.3,0 31.32,-13.96 31.32,-31.25 0,-17.29 -14.02,-31.35 -31.32,-31.35 -17.29,0 -31.31,14.06 -31.31,31.35 0,17.29 14.02,31.25 31.31,31.25zm344.54 -31.25c0,17.29 -14.03,31.25 -31.32,31.25 -17.3,0 -31.32,-13.96 -31.32,-31.25 0,-17.29 14.02,-31.35 31.32,-31.35 17.29,0 31.32,14.06 31.32,31.35zm281.89 31.25c17.3,0 31.32,-13.96 31.32,-31.25 0,-17.29 -14.02,-31.35 -31.32,-31.35 -17.29,0 -31.32,14.06 -31.32,31.35 0,17.29 14.03,31.25 31.32,31.25zm344.53 -31.25c0,17.29 -14.02,31.25 -31.31,31.25 -17.3,0 -31.32,-13.96 -31.32,-31.25 0,-17.29 14.02,-31.35 31.32,-31.35 17.3,0 31.31,14.06 31.31,31.35zm281.89 31.25c17.3,0 31.32,-13.96 31.32,-31.25 0,-17.29 -14.02,-31.35 -31.32,-31.35 -17.3,0 -31.32,14.06 -31.32,31.35 0,17.29 14.02,31.25 31.32,31.25zm344.53 -31.25c0,17.29 -14.02,31.25 -31.32,31.25 -17.29,0 -31.31,-13.96 -31.31,-31.25 0,-17.29 14.02,-31.35 31.31,-31.35 17.3,0 31.32,14.06 31.32,31.35zm281.9 31.25c17.29,0 31.32,-13.96 31.32,-31.25 0,-17.29 -14.03,-31.35 -31.32,-31.35 -17.3,0 -31.32,14.06 -31.32,31.35 0,17.29 14.02,31.25 31.32,31.25zm344.53 -31.25c0,17.29 -14.02,31.25 -31.32,31.25 -17.29,0 -31.32,-13.96 -31.32,-31.25 0,-17.29 14.03,-31.35 31.32,-31.35 17.3,0 31.32,14.06 31.32,31.35zm281.89 31.25c17.29,0 31.31,-13.96 31.31,-31.25 0,-17.29 -14.02,-31.35 -31.31,-31.35 -17.3,0 -31.32,14.06 -31.32,31.35 0,17.29 14.02,31.25 31.32,31.25zm313.21 0c-17.23,0 -31.32,-14.06 -31.32,-31.25 0,-17.29 14.09,-31.35 31.32,-31.35l0 62.6zm-3727.22 281.87c0,-17.19 -14.09,-31.25 -31.32,-31.25l0 62.6c17.23,0 31.32,-14.06 31.32,-31.35zm313.21 0c0,17.4 -14.02,31.35 -31.32,31.35 -17.3,0 -31.32,-13.96 -31.32,-31.35 0,-17.29 14.02,-31.25 31.32,-31.25 17.3,0 31.32,13.96 31.32,31.25zm281.89 31.35c17.3,0 31.32,-13.96 31.32,-31.35 0,-17.29 -14.02,-31.25 -31.32,-31.25 -17.3,0 -31.32,13.96 -31.32,31.25 0,17.4 14.02,31.35 31.32,31.35zm344.53 -31.35c0,17.4 -14.02,31.35 -31.32,31.35 -17.29,0 -31.31,-13.96 -31.31,-31.35 0,-17.29 14.02,-31.25 31.31,-31.25 17.3,0 31.32,13.96 31.32,31.25zm281.9 31.35c17.29,0 31.32,-13.96 31.32,-31.35 0,-17.29 -14.03,-31.25 -31.32,-31.25 -17.3,0 -31.32,13.96 -31.32,31.25 0,17.4 14.02,31.35 31.32,31.35zm344.53 -31.35c0,17.4 -14.02,31.35 -31.32,31.35 -17.29,0 -31.32,-13.96 -31.32,-31.35 0,-17.29 14.03,-31.25 31.32,-31.25 17.3,0 31.32,13.96 31.32,31.25zm281.89 31.35c17.3,0 31.31,-13.96 31.31,-31.35 0,-17.29 -14.02,-31.25 -31.31,-31.25 -17.3,0 -31.32,13.96 -31.32,31.25 0,17.4 14.02,31.35 31.32,31.35zm344.53 -31.35c0,17.4 -14.02,31.35 -31.32,31.35 -17.3,0 -31.32,-13.96 -31.32,-31.35 0,-17.29 14.02,-31.25 31.32,-31.25 17.3,0 31.32,13.96 31.32,31.25zm281.89 31.35c17.3,0 31.32,-13.96 31.32,-31.35 0,-17.29 -14.02,-31.25 -31.32,-31.25 -17.29,0 -31.31,13.96 -31.31,31.25 0,17.4 14.02,31.35 31.31,31.35zm344.54 -31.35c0,17.4 -14.03,31.35 -31.32,31.35 -17.3,0 -31.32,-13.96 -31.32,-31.35 0,-17.29 14.02,-31.25 31.32,-31.25 17.29,0 31.32,13.96 31.32,31.25zm281.89 31.35c17.3,0 31.32,-13.96 31.32,-31.35 0,-17.29 -14.02,-31.25 -31.32,-31.25 -17.29,0 -31.32,13.96 -31.32,31.25 0,17.4 14.03,31.35 31.32,31.35zm344.53 -31.35c0,17.4 -14.02,31.35 -31.31,31.35 -17.3,0 -31.32,-13.96 -31.32,-31.35 0,-17.29 14.02,-31.25 31.32,-31.25 17.29,0 31.31,13.96 31.31,31.25zm250.57 0c0,17.3 14.09,31.35 31.32,31.35l0 -62.6c-17.23,0 -31.32,14.06 -31.32,31.25zm-3727.22 281.98c17.23,0 31.32,14.06 31.32,31.25 0,17.29 -14.09,31.35 -31.32,31.35l0 -62.61zm313.21 62.61c17.3,0 31.32,-14.06 31.32,-31.35 0,-17.29 -14.02,-31.25 -31.32,-31.25 -17.3,0 -31.32,13.96 -31.32,31.25 0,17.29 14.02,31.35 31.32,31.35zm344.53 -31.35c0,17.29 -14.02,31.35 -31.32,31.35 -17.3,0 -31.32,-14.06 -31.32,-31.35 0,-17.29 14.02,-31.25 31.32,-31.25 17.3,0 31.32,13.96 31.32,31.25zm281.89 31.35c17.3,0 31.32,-14.06 31.32,-31.35 0,-17.29 -14.02,-31.25 -31.32,-31.25 -17.29,0 -31.31,13.96 -31.31,31.25 0,17.29 14.02,31.35 31.31,31.35zm344.54 -31.35c0,17.29 -14.03,31.35 -31.32,31.35 -17.3,0 -31.32,-14.06 -31.32,-31.35 0,-17.29 14.02,-31.25 31.32,-31.25 17.29,0 31.32,13.96 31.32,31.25zm281.89 31.35c17.3,0 31.32,-14.06 31.32,-31.35 0,-17.29 -14.02,-31.25 -31.32,-31.25 -17.29,0 -31.32,13.96 -31.32,31.25 0,17.29 14.03,31.35 31.32,31.35zm344.53 -31.35c0,17.29 -14.02,31.35 -31.31,31.35 -17.3,0 -31.32,-14.06 -31.32,-31.35 0,-17.29 14.02,-31.25 31.32,-31.25 17.3,0 31.31,13.96 31.31,31.25zm281.89 31.35c17.3,0 31.32,-14.06 31.32,-31.35 0,-17.29 -14.02,-31.25 -31.32,-31.25 -17.3,0 -31.32,13.96 -31.32,31.25 0,17.29 14.02,31.35 31.32,31.35zm344.53 -31.35c0,17.29 -14.02,31.35 -31.32,31.35 -17.29,0 -31.31,-14.06 -31.31,-31.35 0,-17.29 14.02,-31.25 31.31,-31.25 17.3,0 31.32,13.96 31.32,31.25zm281.9 31.35c17.29,0 31.32,-14.06 31.32,-31.35 0,-17.29 -14.03,-31.25 -31.32,-31.25 -17.3,0 -31.32,13.96 -31.32,31.25 0,17.29 14.02,31.35 31.32,31.35zm344.53 -31.35c0,17.29 -14.02,31.35 -31.32,31.35 -17.29,0 -31.32,-14.06 -31.32,-31.35 0,-17.29 14.03,-31.25 31.32,-31.25 17.3,0 31.32,13.96 31.32,31.25zm281.89 31.35c17.29,0 31.31,-14.06 31.31,-31.35 0,-17.29 -14.02,-31.25 -31.31,-31.25 -17.3,0 -31.32,13.96 -31.32,31.25 0,17.29 14.02,31.35 31.32,31.35zm313.21 0c-17.23,0 -31.32,-14.06 -31.32,-31.35 0,-17.19 14.09,-31.25 31.32,-31.25l0 62.61zm-3727.22 281.87c0,-17.19 -14.09,-31.35 -31.32,-31.35l0 62.71c17.23,0 31.32,-14.06 31.32,-31.35zm313.21 0c0,17.29 -14.02,31.35 -31.32,31.35 -17.3,0 -31.32,-14.06 -31.32,-31.35 0,-17.29 14.02,-31.35 31.32,-31.35 17.3,0 31.32,14.06 31.32,31.35zm281.89 31.35c17.3,0 31.32,-14.06 31.32,-31.35 0,-17.29 -14.02,-31.35 -31.32,-31.35 -17.3,0 -31.32,14.06 -31.32,31.35 0,17.29 14.02,31.35 31.32,31.35zm344.53 -31.35c0,17.29 -14.02,31.35 -31.32,31.35 -17.29,0 -31.31,-14.06 -31.31,-31.35 0,-17.29 14.02,-31.35 31.31,-31.35 17.3,0 31.32,14.06 31.32,31.35zm281.9 31.35c17.29,0 31.32,-14.06 31.32,-31.35 0,-17.29 -14.03,-31.35 -31.32,-31.35 -17.3,0 -31.32,14.06 -31.32,31.35 0,17.29 14.02,31.35 31.32,31.35zm344.53 -31.35c0,17.29 -14.02,31.35 -31.32,31.35 -17.29,0 -31.32,-14.06 -31.32,-31.35 0,-17.29 14.03,-31.35 31.32,-31.35 17.3,0 31.32,14.06 31.32,31.35zm281.89 31.35c17.3,0 31.31,-14.06 31.31,-31.35 0,-17.29 -14.02,-31.35 -31.31,-31.35 -17.3,0 -31.32,14.06 -31.32,31.35 0,17.29 14.02,31.35 31.32,31.35zm344.53 -31.35c0,17.29 -14.02,31.35 -31.32,31.35 -17.3,0 -31.32,-14.06 -31.32,-31.35 0,-17.29 14.02,-31.35 31.32,-31.35 17.3,0 31.32,14.06 31.32,31.35zm281.89 31.35c17.3,0 31.32,-14.06 31.32,-31.35 0,-17.29 -14.02,-31.35 -31.32,-31.35 -17.29,0 -31.31,14.06 -31.31,31.35 0,17.29 14.02,31.35 31.31,31.35zm344.54 -31.35c0,17.29 -14.03,31.35 -31.32,31.35 -17.3,0 -31.32,-14.06 -31.32,-31.35 0,-17.29 14.02,-31.35 31.32,-31.35 17.29,0 31.32,14.06 31.32,31.35zm281.89 31.35c17.3,0 31.32,-14.06 31.32,-31.35 0,-17.29 -14.02,-31.35 -31.32,-31.35 -17.29,0 -31.32,14.06 -31.32,31.35 0,17.29 14.03,31.35 31.32,31.35zm344.53 -31.35c0,17.29 -14.02,31.35 -31.31,31.35 -17.3,0 -31.32,-14.06 -31.32,-31.35 0,-17.29 14.02,-31.35 31.32,-31.35 17.29,0 31.31,14.06 31.31,31.35zm250.57 0c0,17.29 14.09,31.35 31.32,31.35l0 -62.71c-17.23,0 -31.32,14.17 -31.32,31.35zm-3727.22 281.87c17.23,0 31.32,14.17 31.32,31.35 0,17.19 -14.09,31.35 -31.32,31.35l0 -62.71zm313.21 62.71c17.3,0 31.32,-14.06 31.32,-31.35 0,-17.29 -14.02,-31.35 -31.32,-31.35 -17.3,0 -31.32,14.06 -31.32,31.35 0,17.29 14.02,31.35 31.32,31.35zm344.53 -31.35c0,17.29 -14.02,31.35 -31.32,31.35 -17.3,0 -31.32,-14.06 -31.32,-31.35 0,-17.29 14.02,-31.35 31.32,-31.35 17.3,0 31.32,14.06 31.32,31.35zm281.89 31.35c17.3,0 31.32,-14.06 31.32,-31.35 0,-17.29 -14.02,-31.35 -31.32,-31.35 -17.29,0 -31.31,14.06 -31.31,31.35 0,17.29 14.02,31.35 31.31,31.35zm344.54 -31.35c0,17.29 -14.03,31.35 -31.32,31.35 -17.3,0 -31.32,-14.06 -31.32,-31.35 0,-17.29 14.02,-31.35 31.32,-31.35 17.29,0 31.32,14.06 31.32,31.35zm281.89 31.35c17.3,0 31.32,-14.06 31.32,-31.35 0,-17.29 -14.02,-31.35 -31.32,-31.35 -17.29,0 -31.32,14.06 -31.32,31.35 0,17.29 14.03,31.35 31.32,31.35zm344.53 -31.35c0,17.29 -14.02,31.35 -31.31,31.35 -17.3,0 -31.32,-14.06 -31.32,-31.35 0,-17.29 14.02,-31.35 31.32,-31.35 17.3,0 31.31,14.06 31.31,31.35zm281.89 31.35c17.3,0 31.32,-14.06 31.32,-31.35 0,-17.29 -14.02,-31.35 -31.32,-31.35 -17.3,0 -31.32,14.06 -31.32,31.35 0,17.29 14.02,31.35 31.32,31.35zm344.53 -31.35c0,17.29 -14.02,31.35 -31.32,31.35 -17.29,0 -31.31,-14.06 -31.31,-31.35 0,-17.29 14.02,-31.35 31.31,-31.35 17.3,0 31.32,14.06 31.32,31.35zm281.9 31.35c17.29,0 31.32,-14.06 31.32,-31.35 0,-17.29 -14.03,-31.35 -31.32,-31.35 -17.3,0 -31.32,14.06 -31.32,31.35 0,17.29 14.02,31.35 31.32,31.35zm344.53 -31.35c0,17.29 -14.02,31.35 -31.32,31.35 -17.29,0 -31.32,-14.06 -31.32,-31.35 0,-17.29 14.03,-31.35 31.32,-31.35 17.3,0 31.32,14.06 31.32,31.35zm281.89 31.35c17.29,0 31.31,-14.06 31.31,-31.35 0,-17.29 -14.02,-31.35 -31.31,-31.35 -17.3,0 -31.32,14.06 -31.32,31.35 0,17.29 14.02,31.35 31.32,31.35zm313.21 0c-17.23,0 -31.32,-14.17 -31.32,-31.35 0,-17.19 14.09,-31.35 31.32,-31.35l0 62.71zm-3727.22 281.87c0,-17.29 -14.09,-31.35 -31.32,-31.35l0 62.71c17.23,0 31.32,-14.17 31.32,-31.35zm313.21 0c0,17.29 -14.02,31.35 -31.32,31.35 -17.3,0 -31.32,-14.06 -31.32,-31.35 0,-17.29 14.02,-31.35 31.32,-31.35 17.3,0 31.32,14.06 31.32,31.35zm281.89 31.35c17.3,0 31.32,-14.06 31.32,-31.35 0,-17.29 -14.02,-31.35 -31.32,-31.35 -17.3,0 -31.32,14.06 -31.32,31.35 0,17.29 14.02,31.35 31.32,31.35zm344.53 -31.35c0,17.29 -14.02,31.35 -31.32,31.35 -17.29,0 -31.31,-14.06 -31.31,-31.35 0,-17.29 14.02,-31.35 31.31,-31.35 17.3,0 31.32,14.06 31.32,31.35zm281.9 31.35c17.29,0 31.32,-14.06 31.32,-31.35 0,-17.29 -14.03,-31.35 -31.32,-31.35 -17.3,0 -31.32,14.06 -31.32,31.35 0,17.29 14.02,31.35 31.32,31.35zm344.53 -31.35c0,17.29 -14.02,31.35 -31.32,31.35 -17.29,0 -31.32,-14.06 -31.32,-31.35 0,-17.29 14.03,-31.35 31.32,-31.35 17.3,0 31.32,14.06 31.32,31.35zm281.89 31.35c17.3,0 31.31,-14.06 31.31,-31.35 0,-17.29 -14.02,-31.35 -31.31,-31.35 -17.3,0 -31.32,14.06 -31.32,31.35 0,17.29 14.02,31.35 31.32,31.35zm344.53 -31.35c0,17.29 -14.02,31.35 -31.32,31.35 -17.3,0 -31.32,-14.06 -31.32,-31.35 0,-17.29 14.02,-31.35 31.32,-31.35 17.3,0 31.32,14.06 31.32,31.35zm281.89 31.35c17.3,0 31.32,-14.06 31.32,-31.35 0,-17.29 -14.02,-31.35 -31.32,-31.35 -17.29,0 -31.31,14.06 -31.31,31.35 0,17.29 14.02,31.35 31.31,31.35zm344.54 -31.35c0,17.29 -14.03,31.35 -31.32,31.35 -17.3,0 -31.32,-14.06 -31.32,-31.35 0,-17.29 14.02,-31.35 31.32,-31.35 17.29,0 31.32,14.06 31.32,31.35zm281.89 31.35c17.3,0 31.32,-14.06 31.32,-31.35 0,-17.29 -14.02,-31.35 -31.32,-31.35 -17.29,0 -31.32,14.06 -31.32,31.35 0,17.29 14.03,31.35 31.32,31.35zm344.53 -31.35c0,17.29 -14.02,31.35 -31.31,31.35 -17.3,0 -31.32,-14.06 -31.32,-31.35 0,-17.29 14.02,-31.35 31.32,-31.35 17.29,0 31.31,14.06 31.31,31.35zm250.57 0c0,17.19 14.09,31.35 31.32,31.35l0 -62.71c-17.23,0 -31.32,14.06 -31.32,31.35zm-3727.22 313.23l0 -31.35c17.23,0 31.32,14.06 31.32,31.35l-31.32 0zm313.21 -31.35c-17.23,0 -31.32,14.06 -31.32,31.35l62.65 0c0,-17.29 -14.1,-31.35 -31.32,-31.35zm281.89 31.35c0,-17.29 14.09,-31.35 31.32,-31.35 17.22,0 31.32,14.06 31.32,31.35l-62.64 0zm344.53 -31.35c-17.22,0 -31.31,14.06 -31.31,31.35l62.64 0c0,-17.29 -14.09,-31.35 -31.32,-31.35zm281.9 31.35c0,-17.29 14.09,-31.35 31.32,-31.35 17.23,0 31.32,14.06 31.32,31.35l-62.65 0zm344.53 -31.35c-17.23,0 -31.32,14.06 -31.32,31.35l62.65 0c0,-17.29 -14.09,-31.35 -31.32,-31.35zm281.89 31.35c0,-17.29 14.09,-31.35 31.32,-31.35 17.22,0 31.31,14.06 31.31,31.35l-62.64 0zm344.53 -31.35c-17.23,0 -31.32,14.06 -31.32,31.35l62.65 0c0,-17.29 -14.09,-31.35 -31.32,-31.35zm281.9 31.35c0,-17.29 14.09,-31.35 31.31,-31.35 17.23,0 31.32,14.06 31.32,31.35l-62.63 0zm344.53 -31.35c-17.23,0 -31.32,14.06 -31.32,31.35l62.65 0c0,-17.29 -14.09,-31.35 -31.32,-31.35zm281.89 31.35c0,-17.29 14.09,-31.35 31.32,-31.35 17.23,0 31.32,14.06 31.32,31.35l-62.65 0zm344.54 -31.35c-17.23,0 -31.32,14.06 -31.32,31.35l62.64 0c0,-17.29 -14.09,-31.35 -31.31,-31.35zm281.89 31.35c0,-17.29 14.09,-31.35 31.32,-31.35l0 31.35 -31.32 0z"/>
   </g>
  </g>
  <path class="fil1" d="M705.04 0c960.56,0 1739.24,778.69 1739.24,1739.24 0,216.98 -39.85,424.61 -112.43,616.15l-2220.74 0 -111.11 0 0 -2206.5c215.51,-95.68 454.06,-148.89 705.04,-148.89z"/>
 </g>
</svg>
